<svg width="1778" height="944" xmlns="http://www.w3.org/2000/svg" xmlns:xlink="http://www.w3.org/1999/xlink" xml:space="preserve" overflow="hidden"><g transform="translate(-875 -1265)"><g><path d="M968 1316.84 2597.22 1316.84 2597.22 1327.16 968 1327.16ZM2568.88 1299.5 2607.46 1322 2568.88 1344.5C2566.42 1345.94 2563.27 1345.11 2561.83 1342.65 2560.4 1340.19 2561.23 1337.03 2563.69 1335.59L2594.63 1317.55 2594.63 1326.45 2563.69 1308.41 2563.69 1308.41C2561.23 1306.97 2560.4 1303.82 2561.83 1301.36 2563.27 1298.9 2566.42 1298.06 2568.88 1299.5Z" fill="#767171" fill-rule="nonzero" fill-opacity="1"/><path d="M968 1454.84 2597.22 1454.84 2597.22 1465.16 968 1465.16ZM2568.88 1437.5 2607.46 1460 2568.88 1482.5C2566.42 1483.94 2563.27 1483.1 2561.83 1480.65 2560.4 1478.19 2561.23 1475.03 2563.69 1473.59L2594.63 1455.55 2594.63 1464.45 2563.69 1446.41 2563.69 1446.41C2561.23 1444.97 2560.4 1441.82 2561.83 1439.36 2563.27 1436.9 2566.42 1436.06 2568.88 1437.5Z" fill="#767171" fill-rule="nonzero" fill-opacity="1"/><path d="M968 1586.84 2597.22 1586.84 2597.22 1597.16 968 1597.16ZM2568.88 1569.5 2607.46 1592 2568.88 1614.5C2566.42 1615.94 2563.27 1615.1 2561.83 1612.65 2560.4 1610.19 2561.23 1607.03 2563.69 1605.59L2594.63 1587.55 2594.63 1596.45 2563.69 1578.41 2563.69 1578.41C2561.23 1576.97 2560.4 1573.82 2561.83 1571.36 2563.27 1568.9 2566.42 1568.06 2568.88 1569.5Z" fill="#767171" fill-rule="nonzero" fill-opacity="1"/><path d="M968 1718.84 2593.82 1718.84 2593.82 1729.16 968 1729.16ZM2565.49 1701.5 2604.07 1724 2565.49 1746.5C2563.03 1747.94 2559.88 1747.1 2558.44 1744.65 2557.01 1742.19 2557.84 1739.03 2560.3 1737.59L2591.24 1719.55 2591.24 1728.45 2560.3 1710.41 2560.3 1710.41C2557.84 1708.97 2557.01 1705.82 2558.44 1703.36 2559.88 1700.9 2563.03 1700.06 2565.49 1701.5Z" fill="#767171" fill-rule="nonzero" fill-opacity="1"/><path d="M1045.5 1304.17C1045.5 1292.75 1054.75 1283.5 1066.17 1283.5L1148.83 1283.5C1160.25 1283.5 1169.5 1292.75 1169.5 1304.17L1169.5 1483.83C1169.5 1495.25 1160.25 1504.5 1148.83 1504.5L1066.17 1504.5C1054.75 1504.5 1045.5 1495.25 1045.5 1483.83Z" stroke="#B44D49" stroke-width="9.16667" stroke-linecap="butt" stroke-linejoin="miter" stroke-miterlimit="8" stroke-opacity="1" fill="#F8CFCC" fill-rule="evenodd" fill-opacity="1"/><path d="M1213.5 1570.17C1213.5 1558.75 1222.75 1549.5 1234.17 1549.5L1316.83 1549.5C1328.25 1549.5 1337.5 1558.75 1337.5 1570.17L1337.5 1744.83C1337.5 1756.25 1328.25 1765.5 1316.83 1765.5L1234.17 1765.5C1222.75 1765.5 1213.5 1756.25 1213.5 1744.83Z" stroke="#6A8DBE" stroke-width="9.16667" stroke-linecap="butt" stroke-linejoin="miter" stroke-miterlimit="8" stroke-opacity="1" fill="#DBE8FC" fill-rule="evenodd" fill-opacity="1"/><path d="M1366.5 1303.17C1366.5 1291.75 1375.75 1282.5 1387.17 1282.5L1469.83 1282.5C1481.25 1282.5 1490.5 1291.75 1490.5 1303.17L1490.5 1482.83C1490.5 1494.25 1481.25 1503.5 1469.83 1503.5L1387.17 1503.5C1375.75 1503.5 1366.5 1494.25 1366.5 1482.83Z" stroke="#B44D49" stroke-width="9.16667" stroke-linecap="butt" stroke-linejoin="miter" stroke-miterlimit="8" stroke-opacity="1" fill="#F8CFCC" fill-rule="evenodd" fill-opacity="1"/><path d="M1523.5 1564C1523.5 1552.68 1532.68 1543.5 1544 1543.5L1626 1543.5C1637.32 1543.5 1646.5 1552.68 1646.5 1564L1646.5 1741C1646.5 1752.32 1637.32 1761.5 1626 1761.5L1544 1761.5C1532.68 1761.5 1523.5 1752.32 1523.5 1741Z" stroke="#6A8DBE" stroke-width="9.16667" stroke-linecap="butt" stroke-linejoin="miter" stroke-miterlimit="8" stroke-opacity="1" fill="#DBE8FC" fill-rule="evenodd" fill-opacity="1"/><path d="M1828.5 1293.17C1828.5 1281.75 1837.75 1272.5 1849.17 1272.5L1931.83 1272.5C1943.25 1272.5 1952.5 1281.75 1952.5 1293.17L1952.5 1475.83C1952.5 1487.25 1943.25 1496.5 1931.83 1496.5L1849.17 1496.5C1837.75 1496.5 1828.5 1487.25 1828.5 1475.83Z" stroke="#B44D49" stroke-width="9.16667" stroke-linecap="butt" stroke-linejoin="miter" stroke-miterlimit="8" stroke-opacity="1" fill="#F8CFCC" fill-rule="evenodd" fill-opacity="1"/><path d="M1992.5 1562.17C1992.5 1550.75 2001.75 1541.5 2013.17 1541.5L2095.83 1541.5C2107.25 1541.5 2116.5 1550.75 2116.5 1562.17L2116.5 1738.83C2116.5 1750.25 2107.25 1759.5 2095.83 1759.5L2013.17 1759.5C2001.75 1759.5 1992.5 1750.25 1992.5 1738.83Z" stroke="#6A8DBE" stroke-width="9.16667" stroke-linecap="butt" stroke-linejoin="miter" stroke-miterlimit="8" stroke-opacity="1" fill="#DBE8FC" fill-rule="evenodd" fill-opacity="1"/><text fill="#000000" fill-opacity="1" font-family="Times New Roman,Times New Roman_MSFontService,sans-serif" font-style="normal" font-variant="normal" font-weight="400" font-stretch="normal" font-size="83" text-anchor="start" direction="ltr" writing-mode="lr-tb" unicode-bidi="normal" text-decoration="none" transform="matrix(1 0 0 1 1697.13 1403)">…</text><text fill="#000000" fill-opacity="1" font-family="Times New Roman,Times New Roman_MSFontService,sans-serif" font-style="normal" font-variant="normal" font-weight="400" font-stretch="normal" font-size="83" text-anchor="start" direction="ltr" writing-mode="lr-tb" unicode-bidi="normal" text-decoration="none" transform="matrix(1 0 0 1 1699.91 1538)">…</text><text fill="#000000" fill-opacity="1" font-family="Times New Roman,Times New Roman_MSFontService,sans-serif" font-style="normal" font-variant="normal" font-weight="400" font-stretch="normal" font-size="83" text-anchor="start" direction="ltr" writing-mode="lr-tb" unicode-bidi="normal" text-decoration="none" transform="matrix(1 0 0 1 1697.13 1677)">…</text><path d="M1106.41 1392.67 1268.92 1651.44 1263.1 1655.09 1100.59 1396.33ZM1266.01 1653.27 1272.78 1638.19 1275.76 1668.79 1249.49 1652.82Z" fill="#000000" fill-rule="nonzero" fill-opacity="1"/><path d="M3.00972-1.66072 12.974 16.3976 6.95461 19.719-3.00972 1.66072ZM16.2955 22.417 26.2598 40.4753 20.2404 43.7968 10.2761 25.7385ZM29.5813 46.4948 39.5456 64.5531 33.5262 67.8745 23.5618 49.8162ZM42.867 70.5725 52.8314 88.6309 46.8119 91.9523 36.8476 73.894ZM56.1528 94.6503 66.1171 112.709 60.0977 116.03 50.1334 97.9717ZM69.4386 118.728 79.4029 136.786 73.3835 140.108 63.4191 122.049ZM82.7244 142.806 92.6887 160.864 86.6693 164.186 76.7049 146.127ZM96.0101 166.884 105.974 184.942 99.955 188.263 89.9907 170.205ZM109.296 190.961 119.26 209.02 113.241 212.341 103.276 194.283ZM122.582 215.039 132.546 233.097 126.527 236.419 116.562 218.36ZM135.867 239.117 145.832 257.175 139.812 260.497 129.848 242.438ZM149.153 263.195 149.329 263.514 143.31 266.835 143.134 266.516ZM146.32 265.175 153.93 250.506 155.177 281.226 129.852 263.792Z" fill="#000000" fill-rule="nonzero" fill-opacity="1" transform="matrix(1 0 0 -1 1275.5 1668.73)"/><path d="M1433.48 1389.79 1578.83 1644.03 1572.86 1647.44 1427.52 1393.21ZM1575.85 1645.74 1583.23 1630.96 1584.95 1661.65 1559.36 1644.61Z" fill="#000000" fill-rule="nonzero" fill-opacity="1"/><path d="M1894.45 1381.73 2057.54 1653.46 2051.65 1657 1888.55 1385.27ZM2054.59 1655.23 2061.67 1640.29 2064.03 1670.95 2038.09 1654.44Z" fill="#000000" fill-rule="nonzero" fill-opacity="1"/><rect x="886.5" y="1282.5" width="81.0001" height="81.0001" stroke="#000000" stroke-width="6.875" stroke-linecap="butt" stroke-linejoin="miter" stroke-miterlimit="8" stroke-opacity="1" fill="none"/><text fill="#000000" fill-opacity="1" font-family="DengXian,DengXian_MSFontService,sans-serif" font-style="normal" font-variant="normal" font-weight="400" font-stretch="normal" font-size="55" text-anchor="start" direction="ltr" writing-mode="lr-tb" unicode-bidi="normal" text-decoration="none" transform="matrix(1 0 0 1 911.881 1340)">0</text><rect x="886.5" y="1419.5" width="81.0001" height="81.0001" stroke="#000000" stroke-width="6.875" stroke-linecap="butt" stroke-linejoin="miter" stroke-miterlimit="8" stroke-opacity="1" fill="none"/><text fill="#000000" fill-opacity="1" font-family="DengXian,DengXian_MSFontService,sans-serif" font-style="normal" font-variant="normal" font-weight="400" font-stretch="normal" font-size="55" text-anchor="start" direction="ltr" writing-mode="lr-tb" unicode-bidi="normal" text-decoration="none" transform="matrix(1 0 0 1 911.881 1478)">1</text><rect x="886.5" y="1552.5" width="81.0001" height="80.0001" stroke="#000000" stroke-width="6.875" stroke-linecap="butt" stroke-linejoin="miter" stroke-miterlimit="8" stroke-opacity="1" fill="none"/><text fill="#000000" fill-opacity="1" font-family="DengXian,DengXian_MSFontService,sans-serif" font-style="normal" font-variant="normal" font-weight="400" font-stretch="normal" font-size="55" text-anchor="start" direction="ltr" writing-mode="lr-tb" unicode-bidi="normal" text-decoration="none" transform="matrix(1 0 0 1 911.881 1610)">2</text><rect x="886.5" y="1684.5" width="81.0001" height="81.0001" stroke="#000000" stroke-width="6.875" stroke-linecap="butt" stroke-linejoin="miter" stroke-miterlimit="8" stroke-opacity="1" fill="none"/><text fill="#000000" fill-opacity="1" font-family="DengXian,DengXian_MSFontService,sans-serif" font-style="normal" font-variant="normal" font-weight="400" font-stretch="normal" font-size="55" text-anchor="start" direction="ltr" writing-mode="lr-tb" unicode-bidi="normal" text-decoration="none" transform="matrix(1 0 0 1 911.881 1742)">3</text><path d="M1410.5 2092.83C1410.5 2086.57 1415.57 2081.5 1421.83 2081.5L1480.17 2081.5C1486.43 2081.5 1491.5 2086.57 1491.5 2092.83L1491.5 2138.17C1491.5 2144.43 1486.43 2149.5 1480.17 2149.5L1421.83 2149.5C1415.57 2149.5 1410.5 2144.43 1410.5 2138.17Z" stroke="#B44D49" stroke-width="9.16667" stroke-linecap="butt" stroke-linejoin="miter" stroke-miterlimit="8" stroke-opacity="1" fill="#F8CFCC" fill-rule="evenodd" fill-opacity="1"/><rect x="1069.5" y="2105.5" width="39.0002" height="39.0002" stroke="#000000" stroke-width="6.875" stroke-linecap="butt" stroke-linejoin="miter" stroke-miterlimit="8" stroke-opacity="1" fill="none"/><path d="M1108.5 2122.06 1131.09 2122.06 1131.09 2128.94 1108.5 2128.94ZM1131.09 2125.5 1121.92 2111.75 1149.42 2125.5 1121.92 2139.25Z" fill="#767171" fill-rule="nonzero" fill-opacity="1"/><text fill="#000000" fill-opacity="1" font-family="Times New Roman,Times New Roman_MSFontService,sans-serif" font-style="normal" font-variant="normal" font-weight="400" font-stretch="normal" font-size="46" text-anchor="start" direction="ltr" writing-mode="lr-tb" unicode-bidi="normal" text-decoration="none" transform="matrix(1 0 0 1 1202.07 2112)">GPU </text><text fill="#000000" fill-opacity="1" font-family="Times New Roman,Times New Roman_MSFontService,sans-serif" font-style="normal" font-variant="normal" font-weight="400" font-stretch="normal" font-size="46" text-anchor="start" direction="ltr" writing-mode="lr-tb" unicode-bidi="normal" text-decoration="none" transform="matrix(1 0 0 1 1177.71 2167)">Process</text><text fill="#000000" fill-opacity="1" font-family="Times New Roman,Times New Roman_MSFontService,sans-serif" font-style="normal" font-variant="normal" font-weight="400" font-stretch="normal" font-size="46" text-anchor="start" direction="ltr" writing-mode="lr-tb" unicode-bidi="normal" text-decoration="none" transform="matrix(1 0 0 1 1527.09 2129)">Simulator</text><path d="M1759.5 2090.83C1759.5 2084.57 1764.57 2079.5 1770.83 2079.5L1830.17 2079.5C1836.43 2079.5 1841.5 2084.57 1841.5 2090.83L1841.5 2136.17C1841.5 2142.43 1836.43 2147.5 1830.17 2147.5L1770.83 2147.5C1764.57 2147.5 1759.5 2142.43 1759.5 2136.17Z" stroke="#6A8DBE" stroke-width="9.16667" stroke-linecap="butt" stroke-linejoin="miter" stroke-miterlimit="8" stroke-opacity="1" fill="#DBE8FC" fill-rule="evenodd" fill-opacity="1"/><text fill="#000000" fill-opacity="1" font-family="Times New Roman,Times New Roman_MSFontService,sans-serif" font-style="normal" font-variant="normal" font-weight="400" font-stretch="normal" font-size="46" text-anchor="start" direction="ltr" writing-mode="lr-tb" unicode-bidi="normal" text-decoration="none" transform="matrix(1 0 0 1 1889.27 2129)">Generation</text><path d="M2182.5 2090.83C2182.5 2084.57 2187.57 2079.5 2193.83 2079.5L2252.17 2079.5C2258.43 2079.5 2263.5 2084.57 2263.5 2090.83L2263.5 2136.17C2263.5 2142.43 2258.43 2147.5 2252.17 2147.5L2193.83 2147.5C2187.57 2147.5 2182.5 2142.43 2182.5 2136.17Z" stroke="#D8B656" stroke-width="9.16667" stroke-linecap="butt" stroke-linejoin="miter" stroke-miterlimit="8" stroke-opacity="1" fill="#FFF3CC" fill-rule="evenodd" fill-opacity="1"/><text fill="#000000" fill-opacity="1" font-family="Times New Roman,Times New Roman_MSFontService,sans-serif" font-style="normal" font-variant="normal" font-weight="400" font-stretch="normal" font-size="46" text-anchor="start" direction="ltr" writing-mode="lr-tb" unicode-bidi="normal" text-decoration="none" transform="matrix(1 0 0 1 2301.08 2131)">Training</text><path d="M966 1856.84 2595.22 1856.84 2595.22 1867.16 966 1867.16ZM2566.88 1839.5 2605.46 1862 2566.88 1884.5C2564.42 1885.94 2561.27 1885.11 2559.83 1882.65 2558.4 1880.19 2559.23 1877.03 2561.69 1875.59L2592.63 1857.55 2592.63 1866.45 2561.69 1848.41 2561.69 1848.41C2559.23 1846.97 2558.4 1843.82 2559.83 1841.36 2561.27 1838.9 2564.42 1838.06 2566.88 1839.5Z" fill="#767171" fill-rule="nonzero" fill-opacity="1"/><path d="M966 1988.84 2591.82 1988.84 2591.82 1999.16 966 1999.16ZM2563.49 1971.5 2602.07 1994 2563.49 2016.5C2561.03 2017.94 2557.88 2017.11 2556.44 2014.65 2555.01 2012.19 2555.84 2009.03 2558.3 2007.59L2589.24 1989.55 2589.24 1998.45 2558.3 1980.41 2558.3 1980.41C2555.84 1978.97 2555.01 1975.82 2556.44 1973.36 2557.88 1970.9 2561.03 1970.06 2563.49 1971.5Z" fill="#767171" fill-rule="nonzero" fill-opacity="1"/><rect x="884.5" y="1821.5" width="80.0001" height="81.0001" stroke="#000000" stroke-width="6.875" stroke-linecap="butt" stroke-linejoin="miter" stroke-miterlimit="8" stroke-opacity="1" fill="none"/><text fill="#000000" fill-opacity="1" font-family="DengXian,DengXian_MSFontService,sans-serif" font-style="normal" font-variant="normal" font-weight="400" font-stretch="normal" font-size="55" text-anchor="start" direction="ltr" writing-mode="lr-tb" unicode-bidi="normal" text-decoration="none" transform="matrix(1 0 0 1 909.209 1880)">4</text><rect x="884.5" y="1954.5" width="80.0001" height="80.0001" stroke="#000000" stroke-width="6.875" stroke-linecap="butt" stroke-linejoin="miter" stroke-miterlimit="8" stroke-opacity="1" fill="none"/><text fill="#000000" fill-opacity="1" font-family="DengXian,DengXian_MSFontService,sans-serif" font-style="normal" font-variant="normal" font-weight="400" font-stretch="normal" font-size="55" text-anchor="start" direction="ltr" writing-mode="lr-tb" unicode-bidi="normal" text-decoration="none" transform="matrix(1 0 0 1 909.209 2012)">5</text><path d="M2170.5 1853.67C2170.5 1833.69 2186.69 1817.5 2206.67 1817.5L2477.33 1817.5C2497.31 1817.5 2513.5 1833.69 2513.5 1853.67L2513.5 1998.33C2513.5 2018.31 2497.31 2034.5 2477.33 2034.5L2206.67 2034.5C2186.69 2034.5 2170.5 2018.31 2170.5 1998.33Z" stroke="#D7B656" stroke-width="9.16667" stroke-linecap="butt" stroke-linejoin="miter" stroke-miterlimit="8" stroke-opacity="1" fill="#FFF3CC" fill-rule="evenodd" fill-opacity="1"/></g></g></svg>