<svg width="640" height="640" viewBox="0 0 640 640" fill="none" xmlns="http://www.w3.org/2000/svg">
<path d="M154.587 202.136C159.488 201.728 176.157 202.296 181.557 203.055C203.801 206.181 223.763 214.256 241.49 227.299C243.963 229.118 246.322 230.929 246.734 231.324C247.147 231.719 248.717 233.052 250.225 234.287C253.655 237.097 258.634 242.063 282.689 266.665C305.568 290.064 309.176 293.855 309.027 294.33C308.86 294.858 294.561 309.197 294.197 309.202C294.031 309.202 292.351 307.572 290.464 305.581C286.325 301.211 254.552 268.703 243.737 257.773C219.627 233.406 191.035 221.581 159.581 222.969C141.895 223.749 124.884 228.924 110.416 237.927C91.2344 249.862 76.1333 268.902 69.4991 289.517C66.2049 299.753 64.935 306.987 64.5938 317.462C64.0814 333.207 66.5006 346.177 72.4874 359.782C73.553 362.204 74.4255 364.55 74.4259 364.996C74.4259 365.441 74.5619 365.669 74.7286 365.503C74.8954 365.337 75.7115 366.479 76.5421 368.042C77.3727 369.605 79.1303 372.493 80.4474 374.459C81.7643 376.425 82.7083 378.167 82.546 378.33C82.3837 378.493 82.4873 378.625 82.7765 378.625C83.0656 378.625 84.5567 380.177 86.089 382.074C99.4706 398.636 121.077 411.551 142.073 415.541C167.679 420.406 189.881 417.505 212.326 406.361C218.412 403.34 227.361 397.584 232.835 393.17C236.192 390.463 253.783 372.891 270.924 355.123C274.751 351.155 284.64 340.964 292.9 332.475C301.159 323.987 308.565 316.345 309.358 315.494C310.151 314.643 315.096 309.557 320.346 304.191C325.597 298.825 338.096 286.02 348.122 275.734C389.551 233.235 390.488 232.343 401.313 225.08C424.211 209.716 448.108 202.3 474.927 202.234C487.644 202.203 495.122 203.011 505.697 205.561C514.439 207.669 530.419 213.608 530.419 214.748C530.419 214.939 530.813 215.125 531.293 215.162C533.504 215.334 547.189 223.996 553.394 229.15C558.491 233.385 566.295 241.383 570.587 246.771C582.607 261.863 590.333 278.286 594.082 296.716C600.467 328.101 593.782 361.808 576.08 387.501C564.519 404.281 549.569 417.272 531.715 426.055C517.541 433.027 505.095 436.567 488.605 438.317C459.117 441.446 427.963 433.709 403.061 417.071C393.459 410.656 389.891 407.542 375.092 392.661C357.668 375.141 330.937 347.762 330.774 347.269C330.709 347.072 333.991 343.43 338.067 339.176L345.477 331.44L356.413 342.671C390.62 377.795 402.518 389.722 406.818 393.198C421.618 405.163 438.482 412.769 458.249 416.394C464.614 417.562 487.12 417.735 492.711 416.659C511.361 413.071 526.175 406.424 539.535 395.649C575.006 367.043 585.236 317.086 564.067 275.846C562.002 271.822 559.491 267.398 558.489 266.016C555.507 261.902 550.43 255.696 547.704 252.832C544.233 249.185 534.7 241.246 531.381 239.236C529.891 238.334 528.16 237.207 527.536 236.733C526.066 235.617 517.869 231.633 513.189 229.759C502.408 225.442 488.592 222.806 476.726 222.801C455.926 222.793 436.776 228.075 419.46 238.597C409.458 244.674 403.61 249.804 385.761 268.152C376.491 277.682 364.743 289.748 359.655 294.968C354.568 300.187 346.692 308.278 342.154 312.948C320.153 335.588 316.23 339.618 307.15 348.912C301.783 354.404 289.984 366.52 280.929 375.838C252.142 405.457 249.168 408.222 237.143 416.555C208.199 436.61 169.139 443.813 134.359 435.51C127.076 433.771 115.807 430.094 116.133 429.563C116.257 429.362 115.623 429.077 114.723 428.931C112.332 428.543 103.35 424.057 103.728 423.439C103.911 423.142 103.805 423.071 103.478 423.273C102.758 423.717 99.6092 421.924 92.7892 417.187C89.5902 414.965 87.5573 413.236 87.7491 412.9C87.9258 412.591 87.8912 412.5 87.671 412.699C87.046 413.264 83.7216 410.45 76.6524 403.375C66.6855 393.399 61.0699 385.526 54.9337 372.925C48.8534 360.44 45.059 347.327 43.4298 333.176C42.5558 325.587 43.0781 309.14 44.4376 301.461C46.8359 287.914 51.4622 274.526 57.5079 263.639C77.282 228.027 112.64 205.626 154.587 202.136ZM451.95 241.456C452.449 241.417 452.577 255.396 452.577 309.803V378.209H526.459L526.162 381.405C525.535 388.142 521.369 393.9 514.899 396.974L511.517 398.579L474.899 398.724C433.281 398.887 435.26 399.061 432.575 394.996C431.494 393.359 430.994 391.873 430.767 389.621C430.594 387.909 430.521 357.536 430.605 322.126L430.757 257.744L432.366 254.337C435.833 246.997 442.98 242.297 451.95 241.456ZM149.896 241.627C172.088 241.243 185.295 241.503 190.863 242.434C210.851 245.775 225.472 257.314 230.759 273.922C238.305 297.627 228.568 321.598 206.979 332.46C205.395 333.256 203.256 334.183 202.226 334.518C201.196 334.854 200.354 335.408 200.354 335.75C200.354 336.092 201.766 338.39 203.493 340.858C206.694 345.432 213.433 355.281 217.387 361.165C218.593 362.96 219.713 364.542 219.875 364.681C220.037 364.819 222.021 367.719 224.283 371.125L228.397 377.316L222.491 383.072C216.235 389.169 211.637 392.197 210.824 390.757C210.602 390.363 209.726 389.025 208.876 387.782C208.026 386.539 205.189 382.358 202.572 378.491C199.956 374.624 194.892 367.167 191.319 361.919C187.746 356.671 182.866 349.392 180.476 345.743L176.13 339.108L158.899 339.089L141.667 339.068V398.58L119.915 398.781L120.053 363.776L120.191 328.772L121.554 326.44C123.081 323.829 125.074 321.978 128.124 320.337C130.149 319.248 130.585 319.227 157.15 318.941C182.757 318.667 184.323 318.597 188.116 317.563C199.07 314.579 206.212 308.523 209.442 299.48C210.908 295.377 211.257 286.524 210.109 282.554C208.142 275.749 204.07 270.382 198.172 266.82C194.648 264.692 188.231 262.783 183.372 262.417C181.312 262.262 166.253 262.1 149.908 262.057L120.191 261.979L120.29 259.067C120.493 253.105 125.121 246.611 131.371 243.515L134.65 241.891L149.896 241.627Z" fill="url(#paint0_linear_1425_4589)"/>
<defs>
<linearGradient id="paint0_linear_1425_4589" x1="43.0005" y1="439.236" x2="596.386" y2="201.999" gradientUnits="userSpaceOnUse">
<stop stop-color="#9F23EF"/>
<stop offset="0.5" stop-color="#0F90EE"/>
<stop offset="1" stop-color="#9F23EF"/>
</linearGradient>
</defs>
</svg>
