<svg width="2031" height="857" xmlns="http://www.w3.org/2000/svg" xmlns:xlink="http://www.w3.org/1999/xlink" xml:space="preserve" overflow="hidden"><g transform="translate(-664 -1347)"><g><rect x="670.5" y="1356.5" width="105" height="104" stroke="#000000" stroke-width="6.875" stroke-linecap="butt" stroke-linejoin="miter" stroke-miterlimit="8" stroke-opacity="1" fill="none"/><text fill="#000000" fill-opacity="1" font-family="DengXian,DengXian_MSFontService,sans-serif" font-style="normal" font-variant="normal" font-weight="400" font-stretch="normal" font-size="55" text-anchor="start" direction="ltr" writing-mode="lr-tb" unicode-bidi="normal" text-decoration="none" transform="matrix(1 0 0 1 707.604 1426)">0</text><rect x="670.5" y="1534.5" width="105" height="105" stroke="#000000" stroke-width="6.875" stroke-linecap="butt" stroke-linejoin="miter" stroke-miterlimit="8" stroke-opacity="1" fill="none"/><text fill="#000000" fill-opacity="1" font-family="DengXian,DengXian_MSFontService,sans-serif" font-style="normal" font-variant="normal" font-weight="400" font-stretch="normal" font-size="55" text-anchor="start" direction="ltr" writing-mode="lr-tb" unicode-bidi="normal" text-decoration="none" transform="matrix(1 0 0 1 707.604 1605)">1</text><rect x="670.5" y="1706.5" width="105" height="105" stroke="#000000" stroke-width="6.875" stroke-linecap="butt" stroke-linejoin="miter" stroke-miterlimit="8" stroke-opacity="1" fill="none"/><text fill="#000000" fill-opacity="1" font-family="DengXian,DengXian_MSFontService,sans-serif" font-style="normal" font-variant="normal" font-weight="400" font-stretch="normal" font-size="55" text-anchor="start" direction="ltr" writing-mode="lr-tb" unicode-bidi="normal" text-decoration="none" transform="matrix(1 0 0 1 707.604 1777)">2</text><rect x="670.5" y="1878.5" width="105" height="105" stroke="#000000" stroke-width="6.875" stroke-linecap="butt" stroke-linejoin="miter" stroke-miterlimit="8" stroke-opacity="1" fill="none"/><text fill="#000000" fill-opacity="1" font-family="DengXian,DengXian_MSFontService,sans-serif" font-style="normal" font-variant="normal" font-weight="400" font-stretch="normal" font-size="55" text-anchor="start" direction="ltr" writing-mode="lr-tb" unicode-bidi="normal" text-decoration="none" transform="matrix(1 0 0 1 707.604 1948)">3</text><path d="M9.94614e-07-5.15625 1860.72-5.15589 1860.72 5.15661-9.94614e-07 5.15625ZM1832.38-22.5004 1870.95 0.000373752 1832.38 22.5011C1829.92 23.936 1826.76 23.1051 1825.33 20.6453 1823.89 18.1855 1824.72 15.0282 1827.18 13.5934L1858.12-4.45351 1858.12 4.45422 1827.18-13.5927 1827.18-13.5927C1824.72-15.0275 1823.89-18.1848 1825.33-20.6446 1826.76-23.1044 1829.92-23.9353 1832.38-22.5004Z" fill="#767171" fill-rule="nonzero" fill-opacity="1" transform="matrix(1 0 0 -1 775 1408)"/><path d="M775.005 1581.84 2635.71 1583.41 2635.7 1593.72 774.996 1592.16ZM2607.4 1566.04 2645.95 1588.58 2607.36 1611.04C2604.9 1612.48 2601.74 1611.64 2600.31 1609.18 2598.88 1606.72 2599.71 1603.57 2602.17 1602.13L2633.12 1584.11 2633.12 1593.02 2602.19 1574.95C2599.74 1573.51 2598.91 1570.35 2600.34 1567.89 2601.78 1565.43 2604.94 1564.61 2607.4 1566.04Z" fill="#767171" fill-rule="nonzero" fill-opacity="1"/><path d="M9.94614e-07-5.15625 1860.72-5.15589 1860.72 5.15661-9.94614e-07 5.15625ZM1832.38-22.5004 1870.95 0.000373752 1832.38 22.5011C1829.92 23.936 1826.76 23.1051 1825.33 20.6453 1823.89 18.1855 1824.72 15.0282 1827.18 13.5934L1858.12-4.45351 1858.12 4.45422 1827.18-13.5927 1827.18-13.5927C1824.72-15.0275 1823.89-18.1848 1825.33-20.6446 1826.76-23.1044 1829.92-23.9353 1832.38-22.5004Z" fill="#767171" fill-rule="nonzero" fill-opacity="1" transform="matrix(1 0 0 -1 775 1759)"/><path d="M9.94614e-07-5.15625 1860.72-5.15589 1860.72 5.15661-9.94614e-07 5.15625ZM1832.38-22.5004 1870.95 0.000373752 1832.38 22.5011C1829.92 23.936 1826.76 23.1051 1825.33 20.6453 1823.89 18.1855 1824.72 15.0282 1827.18 13.5934L1858.12-4.45351 1858.12 4.45422 1827.18-13.5927 1827.18-13.5927C1824.72-15.0275 1823.89-18.1848 1825.33-20.6446 1826.76-23.1044 1829.92-23.9353 1832.38-22.5004Z" fill="#767171" fill-rule="nonzero" fill-opacity="1" transform="matrix(1 0 0 -1 775 1930)"/><path d="M856.5 1385.33C856.5 1374.38 865.38 1365.5 876.334 1365.5L955.666 1365.5C966.62 1365.5 975.5 1374.38 975.5 1385.33L975.5 1972.67C975.5 1983.62 966.62 1992.5 955.666 1992.5L876.334 1992.5C865.38 1992.5 856.5 1983.62 856.5 1972.67Z" stroke="#B44D49" stroke-width="9.16667" stroke-linecap="butt" stroke-linejoin="miter" stroke-miterlimit="8" stroke-opacity="1" fill="#F8CFCC" fill-rule="evenodd" fill-opacity="1"/><path d="M1093.5 1385.67C1093.5 1374.53 1102.53 1365.5 1113.67 1365.5L1194.33 1365.5C1205.47 1365.5 1214.5 1374.53 1214.5 1385.67L1214.5 1972.33C1214.5 1983.47 1205.47 1992.5 1194.33 1992.5L1113.67 1992.5C1102.53 1992.5 1093.5 1983.47 1093.5 1972.33Z" stroke="#6A8DBE" stroke-width="9.16667" stroke-linecap="butt" stroke-linejoin="miter" stroke-miterlimit="8" stroke-opacity="1" fill="#DBE8FC" fill-rule="evenodd" fill-opacity="1"/><path d="M1349.5 1381.67C1349.5 1370.53 1358.53 1361.5 1369.67 1361.5L1450.33 1361.5C1461.47 1361.5 1470.5 1370.53 1470.5 1381.67L1470.5 1968.33C1470.5 1979.47 1461.47 1988.5 1450.33 1988.5L1369.67 1988.5C1358.53 1988.5 1349.5 1979.47 1349.5 1968.33Z" stroke="#B44D49" stroke-width="9.16667" stroke-linecap="butt" stroke-linejoin="miter" stroke-miterlimit="8" stroke-opacity="1" fill="#F8CFCC" fill-rule="evenodd" fill-opacity="1"/><path d="M1601.5 1381.5C1601.5 1370.45 1610.45 1361.5 1621.5 1361.5L1701.5 1361.5C1712.55 1361.5 1721.5 1370.45 1721.5 1381.5L1721.5 1968.5C1721.5 1979.55 1712.55 1988.5 1701.5 1988.5L1621.5 1988.5C1610.45 1988.5 1601.5 1979.55 1601.5 1968.5Z" stroke="#6A8DBE" stroke-width="9.16667" stroke-linecap="butt" stroke-linejoin="miter" stroke-miterlimit="8" stroke-opacity="1" fill="#DBE8FC" fill-rule="evenodd" fill-opacity="1"/><path d="M1893.5 1376.67C1893.5 1365.53 1902.53 1356.5 1913.67 1356.5L1994.33 1356.5C2005.47 1356.5 2014.5 1365.53 2014.5 1376.67L2014.5 1963.33C2014.5 1974.47 2005.47 1983.5 1994.33 1983.5L1913.67 1983.5C1902.53 1983.5 1893.5 1974.47 1893.5 1963.33Z" stroke="#B44D49" stroke-width="9.16667" stroke-linecap="butt" stroke-linejoin="miter" stroke-miterlimit="8" stroke-opacity="1" fill="#F8CFCC" fill-rule="evenodd" fill-opacity="1"/><path d="M2139.5 1377.5C2139.5 1366.45 2148.45 1357.5 2159.5 1357.5L2239.5 1357.5C2250.55 1357.5 2259.5 1366.45 2259.5 1377.5L2259.5 1964.5C2259.5 1975.55 2250.55 1984.5 2239.5 1984.5L2159.5 1984.5C2148.45 1984.5 2139.5 1975.55 2139.5 1964.5Z" stroke="#6A8DBE" stroke-width="9.16667" stroke-linecap="butt" stroke-linejoin="miter" stroke-miterlimit="8" stroke-opacity="1" fill="#DBE8FC" fill-rule="evenodd" fill-opacity="1"/><path d="M2353.5 1390.5C2353.5 1371.72 2368.72 1356.5 2387.5 1356.5L2523.5 1356.5C2542.28 1356.5 2557.5 1371.72 2557.5 1390.5L2557.5 1949.5C2557.5 1968.28 2542.28 1983.5 2523.5 1983.5L2387.5 1983.5C2368.72 1983.5 2353.5 1968.28 2353.5 1949.5Z" stroke="#D7B656" stroke-width="9.16667" stroke-linecap="butt" stroke-linejoin="miter" stroke-miterlimit="8" stroke-opacity="1" fill="#FFF3CC" fill-rule="evenodd" fill-opacity="1"/><text fill="#000000" fill-opacity="1" font-family="Times New Roman,Times New Roman_MSFontService,sans-serif" font-style="normal" font-variant="normal" font-weight="400" font-stretch="normal" font-size="83" text-anchor="start" direction="ltr" writing-mode="lr-tb" unicode-bidi="normal" text-decoration="none" transform="matrix(1 0 0 1 1756.21 1509)">…</text><text fill="#000000" fill-opacity="1" font-family="Times New Roman,Times New Roman_MSFontService,sans-serif" font-style="normal" font-variant="normal" font-weight="400" font-stretch="normal" font-size="83" text-anchor="start" direction="ltr" writing-mode="lr-tb" unicode-bidi="normal" text-decoration="none" transform="matrix(1 0 0 1 1759.82 1685)">…</text><text fill="#000000" fill-opacity="1" font-family="Times New Roman,Times New Roman_MSFontService,sans-serif" font-style="normal" font-variant="normal" font-weight="400" font-stretch="normal" font-size="83" text-anchor="start" direction="ltr" writing-mode="lr-tb" unicode-bidi="normal" text-decoration="none" transform="matrix(1 0 0 1 1756.21 1865)">…</text><path d="M913.5 1499.06 1138.52 1499.06 1138.52 1505.94 913.5 1505.94ZM1138.52 1502.5 1129.35 1488.75 1156.85 1502.5 1129.35 1516.25Z" fill="#000000" fill-rule="nonzero" fill-opacity="1"/><path d="M913.5 1679.06 1138.52 1679.06 1138.52 1685.94 913.5 1685.94ZM1138.52 1682.5 1129.35 1668.75 1156.85 1682.5 1129.35 1696.25Z" fill="#000000" fill-rule="nonzero" fill-opacity="1"/><path d="M913.5 1859.06 1138.52 1859.06 1138.52 1865.94 913.5 1865.94ZM1138.52 1862.5 1129.35 1848.75 1156.85 1862.5 1129.35 1876.25Z" fill="#000000" fill-rule="nonzero" fill-opacity="1"/><path d="M1178.5 1499.06 1199.12 1499.06 1199.12 1505.94 1178.5 1505.94ZM1206 1499.06 1226.62 1499.06 1226.62 1505.94 1206 1505.94ZM1233.5 1499.06 1254.12 1499.06 1254.12 1505.94 1233.5 1505.94ZM1261 1499.06 1281.62 1499.06 1281.62 1505.94 1261 1505.94ZM1288.5 1499.06 1309.12 1499.06 1309.12 1505.94 1288.5 1505.94ZM1316 1499.06 1336.62 1499.06 1336.62 1505.94 1316 1505.94ZM1343.5 1499.06 1364.12 1499.06 1364.12 1505.94 1343.5 1505.94ZM1371 1499.06 1391.62 1499.06 1391.62 1505.94 1371 1505.94ZM1398.5 1499.06 1403.52 1499.06 1403.52 1505.94 1398.5 1505.94ZM1403.52 1502.5 1394.35 1488.75 1421.85 1502.5 1394.35 1516.25Z" fill="#000000" fill-rule="nonzero" fill-opacity="1"/><path d="M1178.5 1679.06 1199.12 1679.06 1199.12 1685.94 1178.5 1685.94ZM1206 1679.06 1226.62 1679.06 1226.62 1685.94 1206 1685.94ZM1233.5 1679.06 1254.12 1679.06 1254.12 1685.94 1233.5 1685.94ZM1261 1679.06 1281.62 1679.06 1281.62 1685.94 1261 1685.94ZM1288.5 1679.06 1309.12 1679.06 1309.12 1685.94 1288.5 1685.94ZM1316 1679.06 1336.62 1679.06 1336.62 1685.94 1316 1685.94ZM1343.5 1679.06 1364.12 1679.06 1364.12 1685.94 1343.5 1685.94ZM1371 1679.06 1391.62 1679.06 1391.62 1685.94 1371 1685.94ZM1398.5 1679.06 1403.52 1679.06 1403.52 1685.94 1398.5 1685.94ZM1403.52 1682.5 1394.35 1668.75 1421.85 1682.5 1394.35 1696.25Z" fill="#000000" fill-rule="nonzero" fill-opacity="1"/><path d="M1178.5 1859.06 1199.12 1859.06 1199.12 1865.94 1178.5 1865.94ZM1206 1859.06 1226.62 1859.06 1226.62 1865.94 1206 1865.94ZM1233.5 1859.06 1254.12 1859.06 1254.12 1865.94 1233.5 1865.94ZM1261 1859.06 1281.62 1859.06 1281.62 1865.94 1261 1865.94ZM1288.5 1859.06 1309.12 1859.06 1309.12 1865.94 1288.5 1865.94ZM1316 1859.06 1336.62 1859.06 1336.62 1865.94 1316 1865.94ZM1343.5 1859.06 1364.12 1859.06 1364.12 1865.94 1343.5 1865.94ZM1371 1859.06 1391.62 1859.06 1391.62 1865.94 1371 1865.94ZM1398.5 1859.06 1403.52 1859.06 1403.52 1865.94 1398.5 1865.94ZM1403.52 1862.5 1394.35 1848.75 1421.85 1862.5 1394.35 1876.25Z" fill="#000000" fill-rule="nonzero" fill-opacity="1"/><path d="M1426.5 1499.06 1651.52 1499.06 1651.52 1505.94 1426.5 1505.94ZM1651.52 1502.5 1642.35 1488.75 1669.85 1502.5 1642.35 1516.25Z" fill="#000000" fill-rule="nonzero" fill-opacity="1"/><path d="M1426.5 1679.06 1651.52 1679.06 1651.52 1685.94 1426.5 1685.94ZM1651.52 1682.5 1642.35 1668.75 1669.85 1682.5 1642.35 1696.25Z" fill="#000000" fill-rule="nonzero" fill-opacity="1"/><path d="M1426.5 1859.06 1651.52 1859.06 1651.52 1865.94 1426.5 1865.94ZM1651.52 1862.5 1642.35 1848.75 1669.85 1862.5 1642.35 1876.25Z" fill="#000000" fill-rule="nonzero" fill-opacity="1"/><path d="M1972.5 1499.06 1993.12 1499.06 1993.12 1505.94 1972.5 1505.94ZM2000 1499.06 2020.62 1499.06 2020.62 1505.94 2000 1505.94ZM2027.5 1499.06 2048.12 1499.06 2048.12 1505.94 2027.5 1505.94ZM2055 1499.06 2075.62 1499.06 2075.62 1505.94 2055 1505.94ZM2082.5 1499.06 2103.12 1499.06 2103.12 1505.94 2082.5 1505.94ZM2110 1499.06 2130.62 1499.06 2130.62 1505.94 2110 1505.94ZM2137.5 1499.06 2158.12 1499.06 2158.12 1505.94 2137.5 1505.94ZM2165 1499.06 2185.62 1499.06 2185.62 1505.94 2165 1505.94ZM2192.5 1499.06 2197.52 1499.06 2197.52 1505.94 2192.5 1505.94ZM2197.52 1502.5 2188.35 1488.75 2215.85 1502.5 2188.35 1516.25Z" fill="#000000" fill-rule="nonzero" fill-opacity="1"/><path d="M1972.5 1679.06 1993.12 1679.06 1993.12 1685.94 1972.5 1685.94ZM2000 1679.06 2020.62 1679.06 2020.62 1685.94 2000 1685.94ZM2027.5 1679.06 2048.12 1679.06 2048.12 1685.94 2027.5 1685.94ZM2055 1679.06 2075.62 1679.06 2075.62 1685.94 2055 1685.94ZM2082.5 1679.06 2103.12 1679.06 2103.12 1685.94 2082.5 1685.94ZM2110 1679.06 2130.62 1679.06 2130.62 1685.94 2110 1685.94ZM2137.5 1679.06 2158.12 1679.06 2158.12 1685.94 2137.5 1685.94ZM2165 1679.06 2185.62 1679.06 2185.62 1685.94 2165 1685.94ZM2192.5 1679.06 2197.52 1679.06 2197.52 1685.94 2192.5 1685.94ZM2197.52 1682.5 2188.35 1668.75 2215.85 1682.5 2188.35 1696.25Z" fill="#000000" fill-rule="nonzero" fill-opacity="1"/><path d="M1972.5 1859.06 1993.12 1859.06 1993.12 1865.94 1972.5 1865.94ZM2000 1859.06 2020.62 1859.06 2020.62 1865.94 2000 1865.94ZM2027.5 1859.06 2048.12 1859.06 2048.12 1865.94 2027.5 1865.94ZM2055 1859.06 2075.62 1859.06 2075.62 1865.94 2055 1865.94ZM2082.5 1859.06 2103.12 1859.06 2103.12 1865.94 2082.5 1865.94ZM2110 1859.06 2130.62 1859.06 2130.62 1865.94 2110 1865.94ZM2137.5 1859.06 2158.12 1859.06 2158.12 1865.94 2137.5 1865.94ZM2165 1859.06 2185.62 1859.06 2185.62 1865.94 2165 1865.94ZM2192.5 1859.06 2197.52 1859.06 2197.52 1865.94 2192.5 1865.94ZM2197.52 1862.5 2188.35 1848.75 2215.85 1862.5 2188.35 1876.25Z" fill="#000000" fill-rule="nonzero" fill-opacity="1"/><path d="M1261.5 2087.83C1261.5 2081.57 1266.57 2076.5 1272.83 2076.5L1331.17 2076.5C1337.43 2076.5 1342.5 2081.57 1342.5 2087.83L1342.5 2133.17C1342.5 2139.43 1337.43 2144.5 1331.17 2144.5L1272.83 2144.5C1266.57 2144.5 1261.5 2139.43 1261.5 2133.17Z" stroke="#B44D49" stroke-width="9.16667" stroke-linecap="butt" stroke-linejoin="miter" stroke-miterlimit="8" stroke-opacity="1" fill="#F8CFCC" fill-rule="evenodd" fill-opacity="1"/><rect x="921.5" y="2100.5" width="37.9998" height="38.9998" stroke="#000000" stroke-width="6.875" stroke-linecap="butt" stroke-linejoin="miter" stroke-miterlimit="8" stroke-opacity="1" fill="none"/><path d="M959.5 2116.06 982.089 2116.06 982.088 2122.94 959.5 2122.94ZM982.089 2119.5 972.922 2105.75 1000.42 2119.5 972.922 2133.25Z" fill="#767171" fill-rule="nonzero" fill-opacity="1"/><text fill="#000000" fill-opacity="1" font-family="Times New Roman,Times New Roman_MSFontService,sans-serif" font-style="normal" font-variant="normal" font-weight="400" font-stretch="normal" font-size="46" text-anchor="start" direction="ltr" writing-mode="lr-tb" unicode-bidi="normal" text-decoration="none" transform="matrix(1 0 0 1 1053.22 2107)">GPU </text><text fill="#000000" fill-opacity="1" font-family="Times New Roman,Times New Roman_MSFontService,sans-serif" font-style="normal" font-variant="normal" font-weight="400" font-stretch="normal" font-size="46" text-anchor="start" direction="ltr" writing-mode="lr-tb" unicode-bidi="normal" text-decoration="none" transform="matrix(1 0 0 1 1028.86 2162)">Process</text><text fill="#000000" fill-opacity="1" font-family="Times New Roman,Times New Roman_MSFontService,sans-serif" font-style="normal" font-variant="normal" font-weight="400" font-stretch="normal" font-size="46" text-anchor="start" direction="ltr" writing-mode="lr-tb" unicode-bidi="normal" text-decoration="none" transform="matrix(1 0 0 1 1378.25 2124)">Simulator</text><path d="M1611.5 2085.83C1611.5 2079.57 1616.57 2074.5 1622.83 2074.5L1681.17 2074.5C1687.43 2074.5 1692.5 2079.57 1692.5 2085.83L1692.5 2131.17C1692.5 2137.43 1687.43 2142.5 1681.17 2142.5L1622.83 2142.5C1616.57 2142.5 1611.5 2137.43 1611.5 2131.17Z" stroke="#6A8DBE" stroke-width="9.16667" stroke-linecap="butt" stroke-linejoin="miter" stroke-miterlimit="8" stroke-opacity="1" fill="#DBE8FC" fill-rule="evenodd" fill-opacity="1"/><text fill="#000000" fill-opacity="1" font-family="Times New Roman,Times New Roman_MSFontService,sans-serif" font-style="normal" font-variant="normal" font-weight="400" font-stretch="normal" font-size="46" text-anchor="start" direction="ltr" writing-mode="lr-tb" unicode-bidi="normal" text-decoration="none" transform="matrix(1 0 0 1 1740.42 2124)">Generation</text><path d="M2029.5 2084.83C2029.5 2078.57 2034.57 2073.5 2040.83 2073.5L2099.17 2073.5C2105.43 2073.5 2110.5 2078.57 2110.5 2084.83L2110.5 2130.17C2110.5 2136.43 2105.43 2141.5 2099.17 2141.5L2040.83 2141.5C2034.57 2141.5 2029.5 2136.43 2029.5 2130.17Z" stroke="#D8B656" stroke-width="9.16667" stroke-linecap="butt" stroke-linejoin="miter" stroke-miterlimit="8" stroke-opacity="1" fill="#FFF3CC" fill-rule="evenodd" fill-opacity="1"/><text fill="#000000" fill-opacity="1" font-family="Times New Roman,Times New Roman_MSFontService,sans-serif" font-style="normal" font-variant="normal" font-weight="400" font-stretch="normal" font-size="46" text-anchor="start" direction="ltr" writing-mode="lr-tb" unicode-bidi="normal" text-decoration="none" transform="matrix(1 0 0 1 2148.27 2125)">Training</text></g></g></svg>