<svg width="2113" height="1155" xmlns="http://www.w3.org/2000/svg" xmlns:xlink="http://www.w3.org/1999/xlink" xml:space="preserve" overflow="hidden"><g transform="translate(-788 -1310)"><g><path d="M2344.5 2347.83C2344.5 2341.57 2349.57 2336.5 2355.83 2336.5L2414.17 2336.5C2420.43 2336.5 2425.5 2341.57 2425.5 2347.83L2425.5 2393.17C2425.5 2399.43 2420.43 2404.5 2414.17 2404.5L2355.83 2404.5C2349.57 2404.5 2344.5 2399.43 2344.5 2393.17Z" stroke="#3B3838" stroke-width="9.16667" stroke-linecap="butt" stroke-linejoin="miter" stroke-miterlimit="8" stroke-opacity="1" fill="#D0CECE" fill-rule="evenodd" fill-opacity="1"/><text fill="#000000" fill-opacity="1" font-family="Times New Roman,Times New Roman_MSFontService,sans-serif" font-style="normal" font-variant="normal" font-weight="400" font-stretch="normal" font-size="46" text-anchor="start" direction="ltr" writing-mode="lr-tb" unicode-bidi="normal" text-decoration="none" transform="matrix(1 0 0 1 2449.23 2386)">Data</text><text fill="#000000" fill-opacity="1" font-family="Times New Roman,Times New Roman_MSFontService,sans-serif" font-style="normal" font-variant="normal" font-weight="400" font-stretch="normal" font-size="46" text-anchor="start" direction="ltr" writing-mode="lr-tb" unicode-bidi="normal" text-decoration="none" transform="matrix(1 0 0 1 2547.77 2386)">Queue</text><path d="M896 1365.84 2842.16 1365.84 2842.16 1376.16 896 1376.16ZM2813.83 1348.5 2852.4 1371 2813.83 1393.5C2811.37 1394.94 2808.21 1394.1 2806.78 1391.65 2805.34 1389.19 2806.17 1386.03 2808.63 1384.59L2839.57 1366.55 2839.57 1375.45 2808.63 1357.41C2806.17 1355.97 2805.34 1352.82 2806.78 1350.36 2808.21 1347.9 2811.37 1347.06 2813.83 1348.5Z" fill="#767171" fill-rule="nonzero" fill-opacity="1"/><path d="M896 1535.84 2842.16 1535.84 2842.16 1546.16 896 1546.16ZM2813.83 1518.5 2852.4 1541 2813.83 1563.5C2811.37 1564.94 2808.21 1564.11 2806.78 1561.65 2805.34 1559.19 2806.17 1556.03 2808.63 1554.59L2839.57 1536.55 2839.57 1545.45 2808.63 1527.41C2806.17 1525.97 2805.34 1522.82 2806.78 1520.36 2808.21 1517.9 2811.37 1517.06 2813.83 1518.5Z" fill="#767171" fill-rule="nonzero" fill-opacity="1"/><path d="M896 2034.84 2842.16 2034.84 2842.16 2045.16 896 2045.16ZM2813.83 2017.5 2852.4 2040 2813.83 2062.5C2811.37 2063.94 2808.21 2063.11 2806.78 2060.65 2805.34 2058.19 2806.17 2055.03 2808.63 2053.59L2839.57 2035.55 2839.57 2044.45 2808.63 2026.41C2806.17 2024.97 2805.34 2021.82 2806.78 2019.36 2808.21 2016.9 2811.37 2016.06 2813.83 2017.5Z" fill="#767171" fill-rule="nonzero" fill-opacity="1"/><path d="M896 2198.84 2842.16 2198.84 2842.16 2209.16 896 2209.16ZM2813.83 2181.5 2852.4 2204 2813.83 2226.5C2811.37 2227.94 2808.21 2227.11 2806.78 2224.65 2805.34 2222.19 2806.17 2219.03 2808.63 2217.59L2839.57 2199.55 2839.57 2208.45 2808.63 2190.41C2806.17 2188.97 2805.34 2185.82 2806.78 2183.36 2808.21 2180.9 2811.37 2180.06 2813.83 2181.5Z" fill="#767171" fill-rule="nonzero" fill-opacity="1"/><path d="M970.5 1347.67C970.5 1333.22 982.215 1321.5 996.667 1321.5L1101.33 1321.5C1115.78 1321.5 1127.5 1333.22 1127.5 1347.67L1127.5 1568.33C1127.5 1582.78 1115.78 1594.5 1101.33 1594.5L996.667 1594.5C982.215 1594.5 970.5 1582.78 970.5 1568.33Z" stroke="#B44D49" stroke-width="9.16667" stroke-linecap="butt" stroke-linejoin="miter" stroke-miterlimit="8" stroke-opacity="1" fill="#F8CFCC" fill-rule="evenodd" fill-opacity="1"/><path d="M1151.5 2017.67C1151.5 2003.22 1163.22 1991.5 1177.67 1991.5L1282.33 1991.5C1296.78 1991.5 1308.5 2003.22 1308.5 2017.67L1308.5 2232.33C1308.5 2246.78 1296.78 2258.5 1282.33 2258.5L1177.67 2258.5C1163.22 2258.5 1151.5 2246.78 1151.5 2232.33Z" stroke="#6A8DBE" stroke-width="9.16667" stroke-linecap="butt" stroke-linejoin="miter" stroke-miterlimit="8" stroke-opacity="1" fill="#DBE8FC" fill-rule="evenodd" fill-opacity="1"/><path d="M1161.5 1351.67C1161.5 1337.22 1173.22 1325.5 1187.67 1325.5L1292.33 1325.5C1306.78 1325.5 1318.5 1337.22 1318.5 1351.67L1318.5 1572.33C1318.5 1586.78 1306.78 1598.5 1292.33 1598.5L1187.67 1598.5C1173.22 1598.5 1161.5 1586.78 1161.5 1572.33Z" stroke="#B44D49" stroke-width="9.16667" stroke-linecap="butt" stroke-linejoin="miter" stroke-miterlimit="8" stroke-opacity="1" fill="#F8CFCC" fill-rule="evenodd" fill-opacity="1"/><path d="M1358.5 2014.67C1358.5 2000.22 1370.22 1988.5 1384.67 1988.5L1489.33 1988.5C1503.78 1988.5 1515.5 2000.22 1515.5 2014.67L1515.5 2232.33C1515.5 2246.78 1503.78 2258.5 1489.33 2258.5L1384.67 2258.5C1370.22 2258.5 1358.5 2246.78 1358.5 2232.33Z" stroke="#6A8DBE" stroke-width="9.16667" stroke-linecap="butt" stroke-linejoin="miter" stroke-miterlimit="8" stroke-opacity="1" fill="#DBE8FC" fill-rule="evenodd" fill-opacity="1"/><text fill="#000000" fill-opacity="1" font-family="Times New Roman,Times New Roman_MSFontService,sans-serif" font-style="normal" font-variant="normal" font-weight="400" font-stretch="normal" font-size="83" text-anchor="start" direction="ltr" writing-mode="lr-tb" unicode-bidi="normal" text-decoration="none" transform="matrix(1 0 0 1 1770.96 1455)">…</text><text fill="#000000" fill-opacity="1" font-family="Times New Roman,Times New Roman_MSFontService,sans-serif" font-style="normal" font-variant="normal" font-weight="400" font-stretch="normal" font-size="83" text-anchor="start" direction="ltr" writing-mode="lr-tb" unicode-bidi="normal" text-decoration="none" transform="matrix(1 0 0 1 1768.82 2128)">…</text><path d="M2421.5 1369.83C2421.5 1342.04 2444.04 1319.5 2471.83 1319.5L2673.17 1319.5C2700.96 1319.5 2723.5 1342.04 2723.5 1369.83L2723.5 2201.17C2723.5 2228.96 2700.96 2251.5 2673.17 2251.5L2471.83 2251.5C2444.04 2251.5 2421.5 2228.96 2421.5 2201.17Z" stroke="#D7B656" stroke-width="9.16667" stroke-linecap="butt" stroke-linejoin="miter" stroke-miterlimit="8" stroke-opacity="1" fill="#FFF3CC" fill-rule="evenodd" fill-opacity="1"/><path d="M795.5 1677C795.5 1667.89 802.887 1660.5 812 1660.5L2301 1660.5C2310.11 1660.5 2317.5 1667.89 2317.5 1677L2317.5 1743C2317.5 1752.11 2310.11 1759.5 2301 1759.5L812 1759.5C802.887 1759.5 795.5 1752.11 795.5 1743Z" stroke="#3B3838" stroke-width="9.16667" stroke-linecap="butt" stroke-linejoin="miter" stroke-miterlimit="8" stroke-opacity="1" fill="#D0CECE" fill-rule="evenodd" fill-opacity="1"/><path d="M795.5 1830.83C795.5 1821.81 802.813 1814.5 811.833 1814.5L2301.17 1814.5C2310.19 1814.5 2317.5 1821.81 2317.5 1830.83L2317.5 1896.17C2317.5 1905.19 2310.19 1912.5 2301.17 1912.5L811.833 1912.5C802.813 1912.5 795.5 1905.19 795.5 1896.17Z" stroke="#3B3838" stroke-width="9.16667" stroke-linecap="butt" stroke-linejoin="miter" stroke-miterlimit="8" stroke-opacity="1" fill="#D0CECE" fill-rule="evenodd" fill-opacity="1"/><path d="M1369.5 1351.67C1369.5 1337.22 1381.22 1325.5 1395.67 1325.5L1500.33 1325.5C1514.78 1325.5 1526.5 1337.22 1526.5 1351.67L1526.5 1572.33C1526.5 1586.78 1514.78 1598.5 1500.33 1598.5L1395.67 1598.5C1381.22 1598.5 1369.5 1586.78 1369.5 1572.33Z" stroke="#B44D49" stroke-width="9.16667" stroke-linecap="butt" stroke-linejoin="miter" stroke-miterlimit="8" stroke-opacity="1" fill="#F8CFCC" fill-rule="evenodd" fill-opacity="1"/><path d="M1577.5 1351.67C1577.5 1337.22 1589.22 1325.5 1603.67 1325.5L1708.33 1325.5C1722.78 1325.5 1734.5 1337.22 1734.5 1351.67L1734.5 1572.33C1734.5 1586.78 1722.78 1598.5 1708.33 1598.5L1603.67 1598.5C1589.22 1598.5 1577.5 1586.78 1577.5 1572.33Z" stroke="#B44D49" stroke-width="9.16667" stroke-linecap="butt" stroke-linejoin="miter" stroke-miterlimit="8" stroke-opacity="1" fill="#F8CFCC" fill-rule="evenodd" fill-opacity="1"/><path d="M1569.5 2014.67C1569.5 2000.22 1581.22 1988.5 1595.67 1988.5L1700.33 1988.5C1714.78 1988.5 1726.5 2000.22 1726.5 2014.67L1726.5 2232.33C1726.5 2246.78 1714.78 2258.5 1700.33 2258.5L1595.67 2258.5C1581.22 2258.5 1569.5 2246.78 1569.5 2232.33Z" stroke="#6A8DBE" stroke-width="9.16667" stroke-linecap="butt" stroke-linejoin="miter" stroke-miterlimit="8" stroke-opacity="1" fill="#DBE8FC" fill-rule="evenodd" fill-opacity="1"/><path d="M1040.79 1456.5 1117.76 1708.47 1111.19 1710.48 1034.21 1458.5ZM1114.47 1709.48 1124.95 1696.69 1119.83 1727.01 1098.65 1704.73Z" fill="#000000" fill-rule="nonzero" fill-opacity="1"/><path d="M1123.81 1726.59 1231.85 2118.5 1225.23 2120.33 1117.19 1728.41ZM1228.54 2119.41 1239.36 2106.92 1233.41 2137.08 1212.85 2114.23Z" fill="#000000" fill-rule="nonzero" fill-opacity="1"/><path d="M3.27654-1.03955 9.51384 18.6197 2.96075 20.6988-3.27654 1.03955ZM11.5929 25.1728 17.8302 44.8321 11.2772 46.9112 5.03985 27.2519ZM19.9093 51.3852 26.1466 71.0444 19.5935 73.1235 13.3563 53.4643ZM28.2257 77.5975 34.463 97.2568 27.9099 99.3359 21.6727 79.6766ZM36.5421 103.81 42.7794 123.469 36.2263 125.548 29.989 105.889ZM44.8585 130.022 51.0958 149.681 44.5427 151.761 38.3054 132.101ZM53.1749 156.235 59.4122 175.894 52.8591 177.973 46.6218 158.314ZM61.4913 182.447 67.7286 202.106 61.1755 204.185 54.9382 184.526ZM69.8077 208.659 76.045 228.319 69.4919 230.398 63.2546 210.738ZM78.1241 234.872 80.4402 242.172 73.8872 244.251 71.571 236.951ZM77.1636 243.211 87.4977 230.315 82.7079 260.686 61.2853 238.632Z" fill="#000000" fill-rule="nonzero" fill-opacity="1" transform="matrix(1 0 0 -1 1232.5 2129.19)"/><path d="M3.25726-1.09849 9.84822 18.445 3.33371 20.642-3.25726 1.09849ZM12.0452 24.9596 18.6362 44.5031 12.1217 46.7001 5.5307 27.1565ZM20.8332 51.0176 27.4241 70.5611 20.9096 72.7581 14.3187 53.2146ZM29.6211 77.0757 36.2121 96.6192 29.6976 98.8162 23.1066 79.2726ZM38.4091 103.134 45 122.677 38.4855 124.874 31.8946 105.331ZM47.197 129.192 53.788 148.735 47.2735 150.932 40.6825 131.389ZM55.985 155.25 62.576 174.793 56.0614 176.99 49.4705 157.447ZM64.7729 181.308 71.3639 200.851 64.8494 203.048 58.2584 183.505ZM73.5609 207.366 80.1519 226.909 73.6374 229.106 67.0464 209.563ZM82.3489 233.424 88.9398 252.968 82.4253 255.164 75.8343 235.621ZM91.1368 259.482 97.7278 279.026 91.2133 281.223 84.6223 261.679ZM99.9248 285.54 106.516 305.084 100.001 307.281 93.4102 287.737ZM108.713 311.598 115.304 331.142 108.789 333.339 102.198 313.795ZM117.501 337.656 124.092 357.2 117.577 359.397 110.986 339.853ZM126.289 363.714 132.88 383.258 126.365 385.455 119.774 365.911ZM135.077 389.772 138.78 400.753 132.265 402.95 128.562 391.969ZM135.523 401.852 145.622 388.772 141.381 419.224 119.564 397.56Z" fill="#000000" fill-rule="nonzero" fill-opacity="1" transform="matrix(1 0 0 -1 1315.5 1868.72)"/><path d="M1940.5 1351.67C1940.5 1337.22 1952.22 1325.5 1966.67 1325.5L2071.33 1325.5C2085.78 1325.5 2097.5 1337.22 2097.5 1351.67L2097.5 1572.33C2097.5 1586.78 2085.78 1598.5 2071.33 1598.5L1966.67 1598.5C1952.22 1598.5 1940.5 1586.78 1940.5 1572.33Z" stroke="#B44D49" stroke-width="9.16667" stroke-linecap="butt" stroke-linejoin="miter" stroke-miterlimit="8" stroke-opacity="1" fill="#F8CFCC" fill-rule="evenodd" fill-opacity="1"/><path d="M2135.5 2012.83C2135.5 1998.29 2147.29 1986.5 2161.83 1986.5L2267.17 1986.5C2281.71 1986.5 2293.5 1998.29 2293.5 2012.83L2293.5 2229.17C2293.5 2243.71 2281.71 2255.5 2267.17 2255.5L2161.83 2255.5C2147.29 2255.5 2135.5 2243.71 2135.5 2229.17Z" stroke="#6A8DBE" stroke-width="9.16667" stroke-linecap="butt" stroke-linejoin="miter" stroke-miterlimit="8" stroke-opacity="1" fill="#DBE8FC" fill-rule="evenodd" fill-opacity="1"/><path d="M1942.5 2012.67C1942.5 1998.22 1954.22 1986.5 1968.67 1986.5L2073.33 1986.5C2087.78 1986.5 2099.5 1998.22 2099.5 2012.67L2099.5 2229.33C2099.5 2243.78 2087.78 2255.5 2073.33 2255.5L1968.67 2255.5C1954.22 2255.5 1942.5 2243.78 1942.5 2229.33Z" stroke="#6A8DBE" stroke-width="9.16667" stroke-linecap="butt" stroke-linejoin="miter" stroke-miterlimit="8" stroke-opacity="1" fill="#DBE8FC" fill-rule="evenodd" fill-opacity="1"/><rect x="796.5" y="1323.5" width="100" height="100" stroke="#000000" stroke-width="6.875" stroke-linecap="butt" stroke-linejoin="miter" stroke-miterlimit="8" stroke-opacity="1" fill="none"/><text fill="#000000" fill-opacity="1" font-family="DengXian,DengXian_MSFontService,sans-serif" font-style="normal" font-variant="normal" font-weight="400" font-stretch="normal" font-size="55" text-anchor="start" direction="ltr" writing-mode="lr-tb" unicode-bidi="normal" text-decoration="none" transform="matrix(1 0 0 1 831.418 1391)">0</text><rect x="796.5" y="1493.5" width="100" height="100" stroke="#000000" stroke-width="6.875" stroke-linecap="butt" stroke-linejoin="miter" stroke-miterlimit="8" stroke-opacity="1" fill="none"/><text fill="#000000" fill-opacity="1" font-family="DengXian,DengXian_MSFontService,sans-serif" font-style="normal" font-variant="normal" font-weight="400" font-stretch="normal" font-size="55" text-anchor="start" direction="ltr" writing-mode="lr-tb" unicode-bidi="normal" text-decoration="none" transform="matrix(1 0 0 1 831.418 1561)">1</text><rect x="797.5" y="1992.5" width="99" height="100" stroke="#000000" stroke-width="6.875" stroke-linecap="butt" stroke-linejoin="miter" stroke-miterlimit="8" stroke-opacity="1" fill="none"/><text fill="#000000" fill-opacity="1" font-family="DengXian,DengXian_MSFontService,sans-serif" font-style="normal" font-variant="normal" font-weight="400" font-stretch="normal" font-size="55" text-anchor="start" direction="ltr" writing-mode="lr-tb" unicode-bidi="normal" text-decoration="none" transform="matrix(1 0 0 1 831.744 2060)">2</text><rect x="797.5" y="2156.5" width="99" height="100" stroke="#000000" stroke-width="6.875" stroke-linecap="butt" stroke-linejoin="miter" stroke-miterlimit="8" stroke-opacity="1" fill="none"/><text fill="#000000" fill-opacity="1" font-family="DengXian,DengXian_MSFontService,sans-serif" font-style="normal" font-variant="normal" font-weight="400" font-stretch="normal" font-size="55" text-anchor="start" direction="ltr" writing-mode="lr-tb" unicode-bidi="normal" text-decoration="none" transform="matrix(1 0 0 1 831.744 2224)">3</text><path d="M1245.79 1454.5 1322.76 1706.47 1316.19 1708.48 1239.21 1456.5ZM1319.47 1707.48 1329.95 1694.69 1324.83 1725.01 1303.65 1702.73Z" fill="#000000" fill-rule="nonzero" fill-opacity="1"/><path d="M1328.81 1723.59 1436.85 2115.5 1430.23 2117.33 1322.19 1725.41ZM1433.54 2116.41 1444.36 2103.92 1438.41 2134.08 1417.85 2111.23Z" fill="#000000" fill-rule="nonzero" fill-opacity="1"/><path d="M3.27654-1.03955 9.51384 18.6197 2.96075 20.6988-3.27654 1.03955ZM11.5929 25.1728 17.8302 44.8321 11.2772 46.9112 5.03985 27.2519ZM19.9093 51.3852 26.1466 71.0444 19.5935 73.1235 13.3563 53.4643ZM28.2257 77.5975 34.463 97.2568 27.9099 99.3359 21.6727 79.6766ZM36.5421 103.81 42.7794 123.469 36.2263 125.548 29.989 105.889ZM44.8585 130.022 51.0958 149.681 44.5427 151.761 38.3054 132.101ZM53.1749 156.235 59.4122 175.894 52.8591 177.973 46.6218 158.314ZM61.4913 182.447 67.7286 202.106 61.1755 204.185 54.9382 184.526ZM69.8077 208.659 76.045 228.319 69.4919 230.398 63.2546 210.738ZM78.1241 234.872 80.4402 242.172 73.8872 244.251 71.571 236.951ZM77.1636 243.211 87.4977 230.315 82.7079 260.686 61.2853 238.632Z" fill="#000000" fill-rule="nonzero" fill-opacity="1" transform="matrix(1 0 0 -1 1440.5 2135.19)"/><path d="M3.25726-1.09849 9.84822 18.445 3.33371 20.642-3.25726 1.09849ZM12.0452 24.9596 18.6362 44.5031 12.1217 46.7001 5.5307 27.1565ZM20.8332 51.0176 27.4241 70.5611 20.9096 72.7581 14.3187 53.2146ZM29.6211 77.0757 36.2121 96.6192 29.6976 98.8162 23.1066 79.2726ZM38.4091 103.134 45 122.677 38.4855 124.874 31.8946 105.331ZM47.197 129.192 53.788 148.735 47.2735 150.932 40.6825 131.389ZM55.985 155.25 62.576 174.793 56.0614 176.99 49.4705 157.447ZM64.7729 181.308 71.3639 200.851 64.8494 203.048 58.2584 183.505ZM73.5609 207.366 80.1519 226.909 73.6374 229.106 67.0464 209.563ZM82.3489 233.424 88.9398 252.968 82.4253 255.164 75.8343 235.621ZM91.1368 259.482 97.7278 279.026 91.2133 281.223 84.6223 261.679ZM99.9248 285.54 106.516 305.084 100.001 307.281 93.4102 287.737ZM108.713 311.598 115.304 331.142 108.789 333.339 102.198 313.795ZM117.501 337.656 124.092 357.2 117.577 359.397 110.986 339.853ZM126.289 363.714 132.88 383.258 126.365 385.455 119.774 365.911ZM135.077 389.772 138.78 400.753 132.265 402.95 128.562 391.969ZM135.523 401.852 145.622 388.772 141.381 419.224 119.564 397.56Z" fill="#000000" fill-rule="nonzero" fill-opacity="1" transform="matrix(1 0 0 -1 1522.5 1874.72)"/><path d="M1296.5 2348.83C1296.5 2342.57 1301.57 2337.5 1307.83 2337.5L1367.17 2337.5C1373.43 2337.5 1378.5 2342.57 1378.5 2348.83L1378.5 2394.17C1378.5 2400.43 1373.43 2405.5 1367.17 2405.5L1307.83 2405.5C1301.57 2405.5 1296.5 2400.43 1296.5 2394.17Z" stroke="#B44D49" stroke-width="9.16667" stroke-linecap="butt" stroke-linejoin="miter" stroke-miterlimit="8" stroke-opacity="1" fill="#F8CFCC" fill-rule="evenodd" fill-opacity="1"/><rect x="956.5" y="2362.5" width="37.9998" height="37.9998" stroke="#000000" stroke-width="6.875" stroke-linecap="butt" stroke-linejoin="miter" stroke-miterlimit="8" stroke-opacity="1" fill="none"/><path d="M994.5 2378.06 1017.09 2378.06 1017.09 2384.94 994.5 2384.94ZM1017.09 2381.5 1007.92 2367.75 1035.42 2381.5 1007.92 2395.25Z" fill="#767171" fill-rule="nonzero" fill-opacity="1"/><text fill="#000000" fill-opacity="1" font-family="Times New Roman,Times New Roman_MSFontService,sans-serif" font-style="normal" font-variant="normal" font-weight="400" font-stretch="normal" font-size="46" text-anchor="start" direction="ltr" writing-mode="lr-tb" unicode-bidi="normal" text-decoration="none" transform="matrix(1 0 0 1 1088.49 2368)">GPU </text><text fill="#000000" fill-opacity="1" font-family="Times New Roman,Times New Roman_MSFontService,sans-serif" font-style="normal" font-variant="normal" font-weight="400" font-stretch="normal" font-size="46" text-anchor="start" direction="ltr" writing-mode="lr-tb" unicode-bidi="normal" text-decoration="none" transform="matrix(1 0 0 1 1064.13 2423)">Process</text><text fill="#000000" fill-opacity="1" font-family="Times New Roman,Times New Roman_MSFontService,sans-serif" font-style="normal" font-variant="normal" font-weight="400" font-stretch="normal" font-size="46" text-anchor="start" direction="ltr" writing-mode="lr-tb" unicode-bidi="normal" text-decoration="none" transform="matrix(1 0 0 1 1413.52 2385)">Simulator</text><path d="M1646.5 2346.83C1646.5 2340.57 1651.57 2335.5 1657.83 2335.5L1716.17 2335.5C1722.43 2335.5 1727.5 2340.57 1727.5 2346.83L1727.5 2392.17C1727.5 2398.43 1722.43 2403.5 1716.17 2403.5L1657.83 2403.5C1651.57 2403.5 1646.5 2398.43 1646.5 2392.17Z" stroke="#6A8DBE" stroke-width="9.16667" stroke-linecap="butt" stroke-linejoin="miter" stroke-miterlimit="8" stroke-opacity="1" fill="#DBE8FC" fill-rule="evenodd" fill-opacity="1"/><text fill="#000000" fill-opacity="1" font-family="Times New Roman,Times New Roman_MSFontService,sans-serif" font-style="normal" font-variant="normal" font-weight="400" font-stretch="normal" font-size="46" text-anchor="start" direction="ltr" writing-mode="lr-tb" unicode-bidi="normal" text-decoration="none" transform="matrix(1 0 0 1 1775.69 2385)">Generation</text><path d="M2027.5 2349.83C2027.5 2343.57 2032.57 2338.5 2038.83 2338.5L2097.17 2338.5C2103.43 2338.5 2108.5 2343.57 2108.5 2349.83L2108.5 2395.17C2108.5 2401.43 2103.43 2406.5 2097.17 2406.5L2038.83 2406.5C2032.57 2406.5 2027.5 2401.43 2027.5 2395.17Z" stroke="#D8B656" stroke-width="9.16667" stroke-linecap="butt" stroke-linejoin="miter" stroke-miterlimit="8" stroke-opacity="1" fill="#FFF3CC" fill-rule="evenodd" fill-opacity="1"/><text fill="#000000" fill-opacity="1" font-family="Times New Roman,Times New Roman_MSFontService,sans-serif" font-style="normal" font-variant="normal" font-weight="400" font-stretch="normal" font-size="46" text-anchor="start" direction="ltr" writing-mode="lr-tb" unicode-bidi="normal" text-decoration="none" transform="matrix(1 0 0 1 2145.89 2385)">Training</text></g></g></svg>