<svg width="2218" height="967" xmlns="http://www.w3.org/2000/svg" xmlns:xlink="http://www.w3.org/1999/xlink" xml:space="preserve" overflow="hidden"><g transform="translate(-577 -857)"><g><rect x="584.5" y="976.5" width="105" height="104" stroke="#000000" stroke-width="6.875" stroke-linecap="butt" stroke-linejoin="miter" stroke-miterlimit="8" stroke-opacity="1" fill="none"/><text fill="#000000" fill-opacity="1" font-family="DengXian,DengXian_MSFontService,sans-serif" font-style="normal" font-variant="normal" font-weight="400" font-stretch="normal" font-size="55" text-anchor="start" direction="ltr" writing-mode="lr-tb" unicode-bidi="normal" text-decoration="none" transform="matrix(1 0 0 1 622.101 1046)">0</text><rect x="584.5" y="1154.5" width="105" height="105" stroke="#000000" stroke-width="6.875" stroke-linecap="butt" stroke-linejoin="miter" stroke-miterlimit="8" stroke-opacity="1" fill="none"/><text fill="#000000" fill-opacity="1" font-family="DengXian,DengXian_MSFontService,sans-serif" font-style="normal" font-variant="normal" font-weight="400" font-stretch="normal" font-size="55" text-anchor="start" direction="ltr" writing-mode="lr-tb" unicode-bidi="normal" text-decoration="none" transform="matrix(1 0 0 1 622.101 1225)">1</text><rect x="584.5" y="1326.5" width="105" height="105" stroke="#000000" stroke-width="6.875" stroke-linecap="butt" stroke-linejoin="miter" stroke-miterlimit="8" stroke-opacity="1" fill="none"/><text fill="#000000" fill-opacity="1" font-family="DengXian,DengXian_MSFontService,sans-serif" font-style="normal" font-variant="normal" font-weight="400" font-stretch="normal" font-size="55" text-anchor="start" direction="ltr" writing-mode="lr-tb" unicode-bidi="normal" text-decoration="none" transform="matrix(1 0 0 1 622.101 1397)">2</text><rect x="584.5" y="1498.5" width="105" height="105" stroke="#000000" stroke-width="6.875" stroke-linecap="butt" stroke-linejoin="miter" stroke-miterlimit="8" stroke-opacity="1" fill="none"/><text fill="#000000" fill-opacity="1" font-family="DengXian,DengXian_MSFontService,sans-serif" font-style="normal" font-variant="normal" font-weight="400" font-stretch="normal" font-size="55" text-anchor="start" direction="ltr" writing-mode="lr-tb" unicode-bidi="normal" text-decoration="none" transform="matrix(1 0 0 1 622.101 1569)">3</text><path d="M689 1022.84 2738.05 1022.84 2738.05 1033.16 689 1033.16ZM2709.72 1005.5 2748.3 1028 2709.72 1050.5C2707.26 1051.94 2704.11 1051.11 2702.67 1048.65 2701.24 1046.19 2702.07 1043.03 2704.53 1041.59L2735.47 1023.55 2735.47 1032.45 2704.53 1014.41C2702.07 1012.97 2701.24 1009.82 2702.67 1007.36 2704.11 1004.9 2707.26 1004.06 2709.72 1005.5Z" fill="#767171" fill-rule="nonzero" fill-opacity="1"/><path d="M689 1201.84 2738.05 1201.84 2738.05 1212.16 689 1212.16ZM2709.72 1184.5 2748.3 1207 2709.72 1229.5C2707.26 1230.94 2704.11 1230.1 2702.67 1227.65 2701.24 1225.19 2702.07 1222.03 2704.53 1220.59L2735.47 1202.55 2735.47 1211.45 2704.53 1193.41C2702.07 1191.97 2701.24 1188.82 2702.67 1186.36 2704.11 1183.9 2707.26 1183.06 2709.72 1184.5Z" fill="#767171" fill-rule="nonzero" fill-opacity="1"/><path d="M689 1373.84 2738.05 1373.84 2738.05 1384.16 689 1384.16ZM2709.72 1356.5 2748.3 1379 2709.72 1401.5C2707.26 1402.94 2704.11 1402.11 2702.67 1399.65 2701.24 1397.19 2702.07 1394.03 2704.53 1392.59L2735.47 1374.55 2735.47 1383.45 2704.53 1365.41C2702.07 1363.97 2701.24 1360.82 2702.67 1358.36 2704.11 1355.9 2707.26 1355.06 2709.72 1356.5Z" fill="#767171" fill-rule="nonzero" fill-opacity="1"/><path d="M689 1545.84 2738.05 1545.84 2738.05 1556.16 689 1556.16ZM2709.72 1528.5 2748.3 1551 2709.72 1573.5C2707.26 1574.94 2704.11 1574.11 2702.67 1571.65 2701.24 1569.19 2702.07 1566.03 2704.53 1564.59L2735.47 1546.55 2735.47 1555.45 2704.53 1537.41C2702.07 1535.97 2701.24 1532.82 2702.67 1530.36 2704.11 1527.9 2707.26 1527.06 2709.72 1528.5Z" fill="#767171" fill-rule="nonzero" fill-opacity="1"/><path d="M770.5 1005.5C770.5 994.455 779.454 985.5 790.5 985.5L870.5 985.5C881.546 985.5 890.5 994.455 890.5 1005.5L890.5 1592.5C890.5 1603.55 881.546 1612.5 870.5 1612.5L790.5 1612.5C779.454 1612.5 770.5 1603.55 770.5 1592.5Z" stroke="#B44D49" stroke-width="9.16667" stroke-linecap="butt" stroke-linejoin="miter" stroke-miterlimit="8" stroke-opacity="1" fill="#F8CFCC" fill-rule="evenodd" fill-opacity="1"/><path d="M1008.5 1005.5C1008.5 994.455 1017.45 985.5 1028.5 985.5L1108.5 985.5C1119.55 985.5 1128.5 994.455 1128.5 1005.5L1128.5 1592.5C1128.5 1603.55 1119.55 1612.5 1108.5 1612.5L1028.5 1612.5C1017.45 1612.5 1008.5 1603.55 1008.5 1592.5Z" stroke="#6A8DBE" stroke-width="9.16667" stroke-linecap="butt" stroke-linejoin="miter" stroke-miterlimit="8" stroke-opacity="1" fill="#DBE8FC" fill-rule="evenodd" fill-opacity="1"/><path d="M1264.5 1001.5C1264.5 990.454 1273.45 981.5 1284.5 981.5L1364.5 981.5C1375.55 981.5 1384.5 990.454 1384.5 1001.5L1384.5 1588.5C1384.5 1599.55 1375.55 1608.5 1364.5 1608.5L1284.5 1608.5C1273.45 1608.5 1264.5 1599.55 1264.5 1588.5Z" stroke="#B44D49" stroke-width="9.16667" stroke-linecap="butt" stroke-linejoin="miter" stroke-miterlimit="8" stroke-opacity="1" fill="#F8CFCC" fill-rule="evenodd" fill-opacity="1"/><path d="M1515.5 1001.67C1515.5 990.529 1524.53 981.5 1535.67 981.5L1616.33 981.5C1627.47 981.5 1636.5 990.529 1636.5 1001.67L1636.5 1588.33C1636.5 1599.47 1627.47 1608.5 1616.33 1608.5L1535.67 1608.5C1524.53 1608.5 1515.5 1599.47 1515.5 1588.33Z" stroke="#6A8DBE" stroke-width="9.16667" stroke-linecap="butt" stroke-linejoin="miter" stroke-miterlimit="8" stroke-opacity="1" fill="#DBE8FC" fill-rule="evenodd" fill-opacity="1"/><path d="M1808.5 996.5C1808.5 985.455 1817.45 976.5 1828.5 976.5L1908.5 976.5C1919.55 976.5 1928.5 985.455 1928.5 996.5L1928.5 1583.5C1928.5 1594.55 1919.55 1603.5 1908.5 1603.5L1828.5 1603.5C1817.45 1603.5 1808.5 1594.55 1808.5 1583.5Z" stroke="#B44D49" stroke-width="9.16667" stroke-linecap="butt" stroke-linejoin="miter" stroke-miterlimit="8" stroke-opacity="1" fill="#F8CFCC" fill-rule="evenodd" fill-opacity="1"/><path d="M2053.5 997.667C2053.5 986.529 2062.53 977.5 2073.67 977.5L2154.33 977.5C2165.47 977.5 2174.5 986.529 2174.5 997.667L2174.5 1585.33C2174.5 1596.47 2165.47 1605.5 2154.33 1605.5L2073.67 1605.5C2062.53 1605.5 2053.5 1596.47 2053.5 1585.33Z" stroke="#6A8DBE" stroke-width="9.16667" stroke-linecap="butt" stroke-linejoin="miter" stroke-miterlimit="8" stroke-opacity="1" fill="#DBE8FC" fill-rule="evenodd" fill-opacity="1"/><path d="M2279.5 997.501C2279.5 986.455 2288.45 977.5 2299.5 977.5L2379.5 977.5C2390.55 977.5 2399.5 986.455 2399.5 997.501L2399.5 1585.5C2399.5 1596.55 2390.55 1605.5 2379.5 1605.5L2299.5 1605.5C2288.45 1605.5 2279.5 1596.55 2279.5 1585.5Z" stroke="#7DB162" stroke-width="9.16667" stroke-linecap="butt" stroke-linejoin="miter" stroke-miterlimit="8" stroke-opacity="1" fill="#D6E8D5" fill-rule="evenodd" fill-opacity="1"/><path d="M2500.5 997.501C2500.5 986.455 2509.45 977.5 2520.5 977.5L2600.5 977.5C2611.55 977.5 2620.5 986.455 2620.5 997.501L2620.5 1585.5C2620.5 1596.55 2611.55 1605.5 2600.5 1605.5L2520.5 1605.5C2509.45 1605.5 2500.5 1596.55 2500.5 1585.5Z" stroke="#D7B656" stroke-width="9.16667" stroke-linecap="butt" stroke-linejoin="miter" stroke-miterlimit="8" stroke-opacity="1" fill="#FFF3CC" fill-rule="evenodd" fill-opacity="1"/><text fill="#000000" fill-opacity="1" font-family="Times New Roman,Times New Roman_MSFontService,sans-serif" font-style="normal" font-variant="normal" font-weight="400" font-stretch="normal" font-size="64" text-anchor="start" direction="ltr" writing-mode="lr-tb" unicode-bidi="normal" text-decoration="none" transform="matrix(1 0 0 1 796.79 948)">Step1</text><text fill="#000000" fill-opacity="1" font-family="Times New Roman,Times New Roman_MSFontService,sans-serif" font-style="normal" font-variant="normal" font-weight="400" font-stretch="normal" font-size="64" text-anchor="start" direction="ltr" writing-mode="lr-tb" unicode-bidi="normal" text-decoration="none" transform="matrix(1 0 0 1 1846.27 944)">StepT</text><text fill="#000000" fill-opacity="1" font-family="Times New Roman,Times New Roman_MSFontService,sans-serif" font-style="normal" font-variant="normal" font-weight="400" font-stretch="normal" font-size="64" text-anchor="start" direction="ltr" writing-mode="lr-tb" unicode-bidi="normal" text-decoration="none" transform="matrix(1 0 0 1 1317.22 941)">Step2</text><text fill="#000000" fill-opacity="1" font-family="Times New Roman,Times New Roman_MSFontService,sans-serif" font-style="normal" font-variant="normal" font-weight="400" font-stretch="normal" font-size="83" text-anchor="start" direction="ltr" writing-mode="lr-tb" unicode-bidi="normal" text-decoration="none" transform="matrix(1 0 0 1 1641.51 1089)">…</text><text fill="#000000" fill-opacity="1" font-family="Times New Roman,Times New Roman_MSFontService,sans-serif" font-style="normal" font-variant="normal" font-weight="400" font-stretch="normal" font-size="83" text-anchor="start" direction="ltr" writing-mode="lr-tb" unicode-bidi="normal" text-decoration="none" transform="matrix(1 0 0 1 1645.12 1264)">…</text><text fill="#000000" fill-opacity="1" font-family="Times New Roman,Times New Roman_MSFontService,sans-serif" font-style="normal" font-variant="normal" font-weight="400" font-stretch="normal" font-size="83" text-anchor="start" direction="ltr" writing-mode="lr-tb" unicode-bidi="normal" text-decoration="none" transform="matrix(1 0 0 1 1641.51 1445)">…</text><path d="M827.5 1119.06 1052.52 1119.06 1052.52 1125.94 827.5 1125.94ZM1052.52 1122.5 1043.35 1108.75 1070.85 1122.5 1043.35 1136.25Z" fill="#000000" fill-rule="nonzero" fill-opacity="1"/><path d="M827.5 1299.06 1052.52 1299.06 1052.52 1305.94 827.5 1305.94ZM1052.52 1302.5 1043.35 1288.75 1070.85 1302.5 1043.35 1316.25Z" fill="#000000" fill-rule="nonzero" fill-opacity="1"/><path d="M827.5 1480.06 1052.52 1480.06 1052.52 1486.94 827.5 1486.94ZM1052.52 1483.5 1043.35 1469.75 1070.85 1483.5 1043.35 1497.25Z" fill="#000000" fill-rule="nonzero" fill-opacity="1"/><path d="M1093.5 1119.06 1114.12 1119.06 1114.12 1125.94 1093.5 1125.94ZM1121 1119.06 1141.62 1119.06 1141.62 1125.94 1121 1125.94ZM1148.5 1119.06 1169.12 1119.06 1169.12 1125.94 1148.5 1125.94ZM1176 1119.06 1196.62 1119.06 1196.62 1125.94 1176 1125.94ZM1203.5 1119.06 1224.12 1119.06 1224.12 1125.94 1203.5 1125.94ZM1231 1119.06 1251.62 1119.06 1251.62 1125.94 1231 1125.94ZM1258.5 1119.06 1279.12 1119.06 1279.12 1125.94 1258.5 1125.94ZM1286 1119.06 1306.62 1119.06 1306.62 1125.94 1286 1125.94ZM1313.5 1119.06 1318.52 1119.06 1318.52 1125.94 1313.5 1125.94ZM1318.52 1122.5 1309.35 1108.75 1336.85 1122.5 1309.35 1136.25Z" fill="#000000" fill-rule="nonzero" fill-opacity="1"/><path d="M1093.5 1299.06 1114.12 1299.06 1114.12 1305.94 1093.5 1305.94ZM1121 1299.06 1141.62 1299.06 1141.62 1305.94 1121 1305.94ZM1148.5 1299.06 1169.12 1299.06 1169.12 1305.94 1148.5 1305.94ZM1176 1299.06 1196.62 1299.06 1196.62 1305.94 1176 1305.94ZM1203.5 1299.06 1224.12 1299.06 1224.12 1305.94 1203.5 1305.94ZM1231 1299.06 1251.62 1299.06 1251.62 1305.94 1231 1305.94ZM1258.5 1299.06 1279.12 1299.06 1279.12 1305.94 1258.5 1305.94ZM1286 1299.06 1306.62 1299.06 1306.62 1305.94 1286 1305.94ZM1313.5 1299.06 1318.52 1299.06 1318.52 1305.94 1313.5 1305.94ZM1318.52 1302.5 1309.35 1288.75 1336.85 1302.5 1309.35 1316.25Z" fill="#000000" fill-rule="nonzero" fill-opacity="1"/><path d="M1093.5 1480.06 1114.12 1480.06 1114.12 1486.94 1093.5 1486.94ZM1121 1480.06 1141.62 1480.06 1141.62 1486.94 1121 1486.94ZM1148.5 1480.06 1169.12 1480.06 1169.12 1486.94 1148.5 1486.94ZM1176 1480.06 1196.62 1480.06 1196.62 1486.94 1176 1486.94ZM1203.5 1480.06 1224.12 1480.06 1224.12 1486.94 1203.5 1486.94ZM1231 1480.06 1251.62 1480.06 1251.62 1486.94 1231 1486.94ZM1258.5 1480.06 1279.12 1480.06 1279.12 1486.94 1258.5 1486.94ZM1286 1480.06 1306.62 1480.06 1306.62 1486.94 1286 1486.94ZM1313.5 1480.06 1318.52 1480.06 1318.52 1486.94 1313.5 1486.94ZM1318.52 1483.5 1309.35 1469.75 1336.85 1483.5 1309.35 1497.25Z" fill="#000000" fill-rule="nonzero" fill-opacity="1"/><path d="M1341.5 1119.06 1566.52 1119.06 1566.52 1125.94 1341.5 1125.94ZM1566.52 1122.5 1557.35 1108.75 1584.85 1122.5 1557.35 1136.25Z" fill="#000000" fill-rule="nonzero" fill-opacity="1"/><path d="M1341.5 1299.06 1566.52 1299.06 1566.52 1305.94 1341.5 1305.94ZM1566.52 1302.5 1557.35 1288.75 1584.85 1302.5 1557.35 1316.25Z" fill="#000000" fill-rule="nonzero" fill-opacity="1"/><path d="M1341.5 1480.06 1566.52 1480.06 1566.52 1486.94 1341.5 1486.94ZM1566.52 1483.5 1557.35 1469.75 1584.85 1483.5 1557.35 1497.25Z" fill="#000000" fill-rule="nonzero" fill-opacity="1"/><path d="M1887.5 1119.06 1908.12 1119.06 1908.12 1125.94 1887.5 1125.94ZM1915 1119.06 1935.62 1119.06 1935.62 1125.94 1915 1125.94ZM1942.5 1119.06 1963.12 1119.06 1963.12 1125.94 1942.5 1125.94ZM1970 1119.06 1990.62 1119.06 1990.62 1125.94 1970 1125.94ZM1997.5 1119.06 2018.12 1119.06 2018.12 1125.94 1997.5 1125.94ZM2025 1119.06 2045.62 1119.06 2045.62 1125.94 2025 1125.94ZM2052.5 1119.06 2073.12 1119.06 2073.12 1125.94 2052.5 1125.94ZM2080 1119.06 2100.62 1119.06 2100.62 1125.94 2080 1125.94ZM2107.5 1119.06 2112.52 1119.06 2112.52 1125.94 2107.5 1125.94ZM2112.52 1122.5 2103.35 1108.75 2130.85 1122.5 2103.35 1136.25Z" fill="#000000" fill-rule="nonzero" fill-opacity="1"/><path d="M1887.5 1299.06 1908.12 1299.06 1908.12 1305.94 1887.5 1305.94ZM1915 1299.06 1935.62 1299.06 1935.62 1305.94 1915 1305.94ZM1942.5 1299.06 1963.12 1299.06 1963.12 1305.94 1942.5 1305.94ZM1970 1299.06 1990.62 1299.06 1990.62 1305.94 1970 1305.94ZM1997.5 1299.06 2018.12 1299.06 2018.12 1305.94 1997.5 1305.94ZM2025 1299.06 2045.62 1299.06 2045.62 1305.94 2025 1305.94ZM2052.5 1299.06 2073.12 1299.06 2073.12 1305.94 2052.5 1305.94ZM2080 1299.06 2100.62 1299.06 2100.62 1305.94 2080 1305.94ZM2107.5 1299.06 2112.52 1299.06 2112.52 1305.94 2107.5 1305.94ZM2112.52 1302.5 2103.35 1288.75 2130.85 1302.5 2103.35 1316.25Z" fill="#000000" fill-rule="nonzero" fill-opacity="1"/><path d="M1887.5 1480.06 1908.12 1480.06 1908.12 1486.94 1887.5 1486.94ZM1915 1480.06 1935.62 1480.06 1935.62 1486.94 1915 1486.94ZM1942.5 1480.06 1963.12 1480.06 1963.12 1486.94 1942.5 1486.94ZM1970 1480.06 1990.62 1480.06 1990.62 1486.94 1970 1486.94ZM1997.5 1480.06 2018.12 1480.06 2018.12 1486.94 1997.5 1486.94ZM2025 1480.06 2045.62 1480.06 2045.62 1486.94 2025 1486.94ZM2052.5 1480.06 2073.12 1480.06 2073.12 1486.94 2052.5 1486.94ZM2080 1480.06 2100.62 1480.06 2100.62 1486.94 2080 1486.94ZM2107.5 1480.06 2112.52 1480.06 2112.52 1486.94 2107.5 1486.94ZM2112.52 1483.5 2103.35 1469.75 2130.85 1483.5 2103.35 1497.25Z" fill="#000000" fill-rule="nonzero" fill-opacity="1"/><path d="M1176.5 1707.83C1176.5 1701.57 1181.57 1696.5 1187.83 1696.5L1246.17 1696.5C1252.43 1696.5 1257.5 1701.57 1257.5 1707.83L1257.5 1753.17C1257.5 1759.43 1252.43 1764.5 1246.17 1764.5L1187.83 1764.5C1181.57 1764.5 1176.5 1759.43 1176.5 1753.17Z" stroke="#B44D49" stroke-width="9.16667" stroke-linecap="butt" stroke-linejoin="miter" stroke-miterlimit="8" stroke-opacity="1" fill="#F8CFCC" fill-rule="evenodd" fill-opacity="1"/><rect x="835.5" y="1720.5" width="38.9998" height="39.0002" stroke="#000000" stroke-width="6.875" stroke-linecap="butt" stroke-linejoin="miter" stroke-miterlimit="8" stroke-opacity="1" fill="none"/><path d="M874.5 1736.06 897.089 1736.06 897.089 1742.94 874.5 1742.94ZM897.089 1739.5 887.922 1725.75 915.422 1739.5 887.922 1753.25Z" fill="#767171" fill-rule="nonzero" fill-opacity="1"/><text fill="#000000" fill-opacity="1" font-family="Times New Roman,Times New Roman_MSFontService,sans-serif" font-style="normal" font-variant="normal" font-weight="400" font-stretch="normal" font-size="46" text-anchor="start" direction="ltr" writing-mode="lr-tb" unicode-bidi="normal" text-decoration="none" transform="matrix(1 0 0 1 967.72 1727)">GPU </text><text fill="#000000" fill-opacity="1" font-family="Times New Roman,Times New Roman_MSFontService,sans-serif" font-style="normal" font-variant="normal" font-weight="400" font-stretch="normal" font-size="46" text-anchor="start" direction="ltr" writing-mode="lr-tb" unicode-bidi="normal" text-decoration="none" transform="matrix(1 0 0 1 943.36 1782)">Process</text><text fill="#000000" fill-opacity="1" font-family="Times New Roman,Times New Roman_MSFontService,sans-serif" font-style="normal" font-variant="normal" font-weight="400" font-stretch="normal" font-size="46" text-anchor="start" direction="ltr" writing-mode="lr-tb" unicode-bidi="normal" text-decoration="none" transform="matrix(1 0 0 1 1292.74 1744)">Simulator</text><path d="M1525.5 1705.83C1525.5 1699.57 1530.57 1694.5 1536.83 1694.5L1595.17 1694.5C1601.43 1694.5 1606.5 1699.57 1606.5 1705.83L1606.5 1751.17C1606.5 1757.43 1601.43 1762.5 1595.17 1762.5L1536.83 1762.5C1530.57 1762.5 1525.5 1757.43 1525.5 1751.17Z" stroke="#6A8DBE" stroke-width="9.16667" stroke-linecap="butt" stroke-linejoin="miter" stroke-miterlimit="8" stroke-opacity="1" fill="#DBE8FC" fill-rule="evenodd" fill-opacity="1"/><text fill="#000000" fill-opacity="1" font-family="Times New Roman,Times New Roman_MSFontService,sans-serif" font-style="normal" font-variant="normal" font-weight="400" font-stretch="normal" font-size="46" text-anchor="start" direction="ltr" writing-mode="lr-tb" unicode-bidi="normal" text-decoration="none" transform="matrix(1 0 0 1 1654.92 1744)">Generation</text><path d="M1887.5 1708.83C1887.5 1702.57 1892.57 1697.5 1898.83 1697.5L1957.17 1697.5C1963.43 1697.5 1968.5 1702.57 1968.5 1708.83L1968.5 1754.17C1968.5 1760.43 1963.43 1765.5 1957.17 1765.5L1898.83 1765.5C1892.57 1765.5 1887.5 1760.43 1887.5 1754.17Z" stroke="#7DB262" stroke-width="9.16667" stroke-linecap="butt" stroke-linejoin="miter" stroke-miterlimit="8" stroke-opacity="1" fill="#D6E8D6" fill-rule="evenodd" fill-opacity="1"/><text fill="#000000" fill-opacity="1" font-family="Times New Roman,Times New Roman_MSFontService,sans-serif" font-style="normal" font-variant="normal" font-weight="400" font-stretch="normal" font-size="46" text-anchor="start" direction="ltr" writing-mode="lr-tb" unicode-bidi="normal" text-decoration="none" transform="matrix(1 0 0 1 2009.08 1746)">Inference</text><path d="M2229.5 1708.83C2229.5 1702.57 2234.57 1697.5 2240.83 1697.5L2300.17 1697.5C2306.43 1697.5 2311.5 1702.57 2311.5 1708.83L2311.5 1754.17C2311.5 1760.43 2306.43 1765.5 2300.17 1765.5L2240.83 1765.5C2234.57 1765.5 2229.5 1760.43 2229.5 1754.17Z" stroke="#D8B656" stroke-width="9.16667" stroke-linecap="butt" stroke-linejoin="miter" stroke-miterlimit="8" stroke-opacity="1" fill="#FFF3CC" fill-rule="evenodd" fill-opacity="1"/><text fill="#000000" fill-opacity="1" font-family="Times New Roman,Times New Roman_MSFontService,sans-serif" font-style="normal" font-variant="normal" font-weight="400" font-stretch="normal" font-size="46" text-anchor="start" direction="ltr" writing-mode="lr-tb" unicode-bidi="normal" text-decoration="none" transform="matrix(1 0 0 1 2348.51 1749)">Training</text></g></g></svg>