<svg width="1778" height="815" xmlns="http://www.w3.org/2000/svg" xmlns:xlink="http://www.w3.org/1999/xlink" xml:space="preserve" overflow="hidden"><g transform="translate(-559 -967)"><g><path d="M651 1156.84 2280.22 1156.84 2280.22 1167.16 651 1167.16ZM2251.88 1139.5 2290.46 1162 2251.88 1184.5C2249.42 1185.94 2246.27 1185.1 2244.83 1182.65 2243.4 1180.19 2244.23 1177.03 2246.69 1175.59L2277.63 1157.55 2277.63 1166.45 2246.69 1148.41 2246.69 1148.41C2244.23 1146.97 2243.4 1143.82 2244.83 1141.36 2246.27 1138.9 2249.42 1138.06 2251.88 1139.5Z" fill="#767171" fill-rule="nonzero" fill-opacity="1"/><path d="M651 1294.84 2280.22 1294.84 2280.22 1305.16 651 1305.16ZM2251.88 1277.5 2290.46 1300 2251.88 1322.5C2249.42 1323.94 2246.27 1323.11 2244.83 1320.65 2243.4 1318.19 2244.23 1315.03 2246.69 1313.59L2277.63 1295.55 2277.63 1304.45 2246.69 1286.41 2246.69 1286.41C2244.23 1284.97 2243.4 1281.82 2244.83 1279.36 2246.27 1276.9 2249.42 1276.06 2251.88 1277.5Z" fill="#767171" fill-rule="nonzero" fill-opacity="1"/><path d="M651 1426.84 2280.22 1426.84 2280.22 1437.16 651 1437.16ZM2251.88 1409.5 2290.46 1432 2251.88 1454.5C2249.42 1455.94 2246.27 1455.11 2244.83 1452.65 2243.4 1450.19 2244.23 1447.03 2246.69 1445.59L2277.63 1427.55 2277.63 1436.45 2246.69 1418.41 2246.69 1418.41C2244.23 1416.97 2243.4 1413.82 2244.83 1411.36 2246.27 1408.9 2249.42 1408.06 2251.88 1409.5Z" fill="#767171" fill-rule="nonzero" fill-opacity="1"/><path d="M651 1559.84 2276.82 1559.84 2276.82 1570.16 651 1570.16ZM2248.49 1542.5 2287.07 1565 2248.49 1587.5C2246.03 1588.94 2242.88 1588.11 2241.44 1585.65 2240.01 1583.19 2240.84 1580.03 2243.3 1578.59L2274.24 1560.55 2274.24 1569.45 2243.3 1551.41 2243.3 1551.41C2240.84 1549.97 2240.01 1546.82 2241.44 1544.36 2242.88 1541.9 2246.03 1541.06 2248.49 1542.5Z" fill="#767171" fill-rule="nonzero" fill-opacity="1"/><path d="M728.5 1144.17C728.5 1132.75 737.753 1123.5 749.167 1123.5L831.833 1123.5C843.247 1123.5 852.5 1132.75 852.5 1144.17L852.5 1323.83C852.5 1335.25 843.247 1344.5 831.833 1344.5L749.167 1344.5C737.753 1344.5 728.5 1335.25 728.5 1323.83Z" stroke="#B44D49" stroke-width="9.16667" stroke-linecap="butt" stroke-linejoin="miter" stroke-miterlimit="8" stroke-opacity="1" fill="#F8CFCC" fill-rule="evenodd" fill-opacity="1"/><path d="M896.5 1410.17C896.5 1398.75 905.753 1389.5 917.167 1389.5L999.833 1389.5C1011.25 1389.5 1020.5 1398.75 1020.5 1410.17L1020.5 1584.83C1020.5 1596.25 1011.25 1605.5 999.833 1605.5L917.167 1605.5C905.753 1605.5 896.5 1596.25 896.5 1584.83Z" stroke="#6A8DBE" stroke-width="9.16667" stroke-linecap="butt" stroke-linejoin="miter" stroke-miterlimit="8" stroke-opacity="1" fill="#DBE8FC" fill-rule="evenodd" fill-opacity="1"/><path d="M1049.5 1143.17C1049.5 1131.75 1058.75 1122.5 1070.17 1122.5L1152.83 1122.5C1164.25 1122.5 1173.5 1131.75 1173.5 1143.17L1173.5 1322.83C1173.5 1334.25 1164.25 1343.5 1152.83 1343.5L1070.17 1343.5C1058.75 1343.5 1049.5 1334.25 1049.5 1322.83Z" stroke="#B44D49" stroke-width="9.16667" stroke-linecap="butt" stroke-linejoin="miter" stroke-miterlimit="8" stroke-opacity="1" fill="#F8CFCC" fill-rule="evenodd" fill-opacity="1"/><path d="M1205.5 1404.17C1205.5 1392.75 1214.75 1383.5 1226.17 1383.5L1308.83 1383.5C1320.25 1383.5 1329.5 1392.75 1329.5 1404.17L1329.5 1580.83C1329.5 1592.25 1320.25 1601.5 1308.83 1601.5L1226.17 1601.5C1214.75 1601.5 1205.5 1592.25 1205.5 1580.83Z" stroke="#6A8DBE" stroke-width="9.16667" stroke-linecap="butt" stroke-linejoin="miter" stroke-miterlimit="8" stroke-opacity="1" fill="#DBE8FC" fill-rule="evenodd" fill-opacity="1"/><path d="M1511.5 1133.17C1511.5 1121.75 1520.75 1112.5 1532.17 1112.5L1614.83 1112.5C1626.25 1112.5 1635.5 1121.75 1635.5 1133.17L1635.5 1315.83C1635.5 1327.25 1626.25 1336.5 1614.83 1336.5L1532.17 1336.5C1520.75 1336.5 1511.5 1327.25 1511.5 1315.83Z" stroke="#B44D49" stroke-width="9.16667" stroke-linecap="butt" stroke-linejoin="miter" stroke-miterlimit="8" stroke-opacity="1" fill="#F8CFCC" fill-rule="evenodd" fill-opacity="1"/><path d="M1675.5 1402.17C1675.5 1390.75 1684.75 1381.5 1696.17 1381.5L1778.83 1381.5C1790.25 1381.5 1799.5 1390.75 1799.5 1402.17L1799.5 1578.83C1799.5 1590.25 1790.25 1599.5 1778.83 1599.5L1696.17 1599.5C1684.75 1599.5 1675.5 1590.25 1675.5 1578.83Z" stroke="#6A8DBE" stroke-width="9.16667" stroke-linecap="butt" stroke-linejoin="miter" stroke-miterlimit="8" stroke-opacity="1" fill="#DBE8FC" fill-rule="evenodd" fill-opacity="1"/><text fill="#000000" fill-opacity="1" font-family="Times New Roman,Times New Roman_MSFontService,sans-serif" font-style="normal" font-variant="normal" font-weight="400" font-stretch="normal" font-size="83" text-anchor="start" direction="ltr" writing-mode="lr-tb" unicode-bidi="normal" text-decoration="none" transform="matrix(1 0 0 1 1379.99 1243)">…</text><text fill="#000000" fill-opacity="1" font-family="Times New Roman,Times New Roman_MSFontService,sans-serif" font-style="normal" font-variant="normal" font-weight="400" font-stretch="normal" font-size="83" text-anchor="start" direction="ltr" writing-mode="lr-tb" unicode-bidi="normal" text-decoration="none" transform="matrix(1 0 0 1 1382.77 1378)">…</text><text fill="#000000" fill-opacity="1" font-family="Times New Roman,Times New Roman_MSFontService,sans-serif" font-style="normal" font-variant="normal" font-weight="400" font-stretch="normal" font-size="83" text-anchor="start" direction="ltr" writing-mode="lr-tb" unicode-bidi="normal" text-decoration="none" transform="matrix(1 0 0 1 1379.99 1517)">…</text><path d="M1844.5 1532.83C1844.5 1524.92 1850.92 1518.5 1858.83 1518.5L1979.17 1518.5C1987.08 1518.5 1993.5 1524.92 1993.5 1532.83L1993.5 1590.17C1993.5 1598.08 1987.08 1604.5 1979.17 1604.5L1858.83 1604.5C1850.92 1604.5 1844.5 1598.08 1844.5 1590.17Z" stroke="#7DB162" stroke-width="9.16667" stroke-linecap="butt" stroke-linejoin="miter" stroke-miterlimit="8" stroke-opacity="1" fill="#D6E8D5" fill-rule="evenodd" fill-opacity="1"/><path d="M1844.5 1403.83C1844.5 1395.92 1850.92 1389.5 1858.83 1389.5L1979.17 1389.5C1987.08 1389.5 1993.5 1395.92 1993.5 1403.83L1993.5 1461.17C1993.5 1469.08 1987.08 1475.5 1979.17 1475.5L1858.83 1475.5C1850.92 1475.5 1844.5 1469.08 1844.5 1461.17Z" stroke="#7DB162" stroke-width="9.16667" stroke-linecap="butt" stroke-linejoin="miter" stroke-miterlimit="8" stroke-opacity="1" fill="#D6E8D5" fill-rule="evenodd" fill-opacity="1"/><path d="M1844.5 1270.83C1844.5 1262.92 1850.92 1256.5 1858.83 1256.5L1980.17 1256.5C1988.08 1256.5 1994.5 1262.92 1994.5 1270.83L1994.5 1328.17C1994.5 1336.08 1988.08 1342.5 1980.17 1342.5L1858.83 1342.5C1850.92 1342.5 1844.5 1336.08 1844.5 1328.17Z" stroke="#7DB162" stroke-width="9.16667" stroke-linecap="butt" stroke-linejoin="miter" stroke-miterlimit="8" stroke-opacity="1" fill="#D6E8D5" fill-rule="evenodd" fill-opacity="1"/><path d="M2028.5 1263.5C2028.5 1254.66 2035.66 1247.5 2044.5 1247.5L2154.5 1247.5C2163.34 1247.5 2170.5 1254.66 2170.5 1263.5L2170.5 1327.5C2170.5 1336.34 2163.34 1343.5 2154.5 1343.5L2044.5 1343.5C2035.66 1343.5 2028.5 1336.34 2028.5 1327.5Z" stroke="#D7B656" stroke-width="9.16667" stroke-linecap="butt" stroke-linejoin="miter" stroke-miterlimit="8" stroke-opacity="1" fill="#FFF3CC" fill-rule="evenodd" fill-opacity="1"/><path d="M2028.5 1130.67C2028.5 1121.74 2035.74 1114.5 2044.67 1114.5L2154.33 1114.5C2163.26 1114.5 2170.5 1121.74 2170.5 1130.67L2170.5 1195.33C2170.5 1204.26 2163.26 1211.5 2154.33 1211.5L2044.67 1211.5C2035.74 1211.5 2028.5 1204.26 2028.5 1195.33Z" stroke="#D7B656" stroke-width="9.16667" stroke-linecap="butt" stroke-linejoin="miter" stroke-miterlimit="8" stroke-opacity="1" fill="#FFF3CC" fill-rule="evenodd" fill-opacity="1"/><text fill="#000000" fill-opacity="1" font-family="Times New Roman,Times New Roman_MSFontService,sans-serif" font-style="normal" font-variant="normal" font-weight="400" font-stretch="normal" font-size="64" text-anchor="start" direction="ltr" writing-mode="lr-tb" unicode-bidi="normal" text-decoration="none" transform="matrix(1 0 0 1 781.193 1050)">Step1</text><text fill="#000000" fill-opacity="1" font-family="Times New Roman,Times New Roman_MSFontService,sans-serif" font-style="normal" font-variant="normal" font-weight="400" font-stretch="normal" font-size="64" text-anchor="start" direction="ltr" writing-mode="lr-tb" unicode-bidi="normal" text-decoration="none" transform="matrix(1 0 0 1 1580.74 1050)">StepT</text><text fill="#000000" fill-opacity="1" font-family="Times New Roman,Times New Roman_MSFontService,sans-serif" font-style="normal" font-variant="normal" font-weight="400" font-stretch="normal" font-size="64" text-anchor="start" direction="ltr" writing-mode="lr-tb" unicode-bidi="normal" text-decoration="none" transform="matrix(1 0 0 1 1146.26 1050)">Step2</text><path d="M788.411 1232.67 950.921 1491.44 945.099 1495.09 782.589 1236.33ZM948.01 1493.27 954.779 1478.19 957.76 1508.79 931.49 1492.82Z" fill="#000000" fill-rule="nonzero" fill-opacity="1"/><path d="M3.00972-1.66072 12.974 16.3976 6.95461 19.719-3.00972 1.66072ZM16.2955 22.417 26.2598 40.4753 20.2404 43.7968 10.2761 25.7385ZM29.5813 46.4948 39.5456 64.5531 33.5262 67.8745 23.5618 49.8162ZM42.867 70.5725 52.8314 88.6309 46.8119 91.9523 36.8476 73.894ZM56.1528 94.6503 66.1171 112.709 60.0977 116.03 50.1334 97.9717ZM69.4386 118.728 79.4029 136.786 73.3835 140.108 63.4191 122.049ZM82.7244 142.806 92.6887 160.864 86.6693 164.186 76.7049 146.127ZM96.0101 166.884 105.974 184.942 99.955 188.263 89.9907 170.205ZM109.296 190.961 119.26 209.02 113.241 212.341 103.276 194.283ZM122.582 215.039 132.546 233.097 126.527 236.419 116.562 218.36ZM135.867 239.117 145.832 257.175 139.812 260.497 129.848 242.438ZM149.153 263.195 149.329 263.514 143.31 266.835 143.134 266.516ZM146.32 265.175 153.93 250.506 155.177 281.226 129.852 263.792Z" fill="#000000" fill-rule="nonzero" fill-opacity="1" transform="matrix(1 0 0 -1 958.5 1508.73)"/><path d="M1116.48 1229.79 1261.83 1484.03 1255.86 1487.44 1110.52 1233.21ZM1258.85 1485.74 1266.23 1470.96 1267.95 1501.65 1242.36 1484.61Z" fill="#000000" fill-rule="nonzero" fill-opacity="1"/><path d="M1576.45 1221.73 1739.54 1493.46 1733.65 1497 1570.55 1225.27ZM1736.59 1495.23 1743.67 1480.29 1746.03 1510.95 1720.09 1494.44Z" fill="#000000" fill-rule="nonzero" fill-opacity="1"/><rect x="569.5" y="1122.5" width="80.9998" height="81.0001" stroke="#000000" stroke-width="6.875" stroke-linecap="butt" stroke-linejoin="miter" stroke-miterlimit="8" stroke-opacity="1" fill="none"/><text fill="#000000" fill-opacity="1" font-family="DengXian,DengXian_MSFontService,sans-serif" font-style="normal" font-variant="normal" font-weight="400" font-stretch="normal" font-size="55" text-anchor="start" direction="ltr" writing-mode="lr-tb" unicode-bidi="normal" text-decoration="none" transform="matrix(1 0 0 1 594.738 1180)">0</text><rect x="569.5" y="1260.5" width="80.9998" height="80.0001" stroke="#000000" stroke-width="6.875" stroke-linecap="butt" stroke-linejoin="miter" stroke-miterlimit="8" stroke-opacity="1" fill="none"/><text fill="#000000" fill-opacity="1" font-family="DengXian,DengXian_MSFontService,sans-serif" font-style="normal" font-variant="normal" font-weight="400" font-stretch="normal" font-size="55" text-anchor="start" direction="ltr" writing-mode="lr-tb" unicode-bidi="normal" text-decoration="none" transform="matrix(1 0 0 1 594.738 1318)">1</text><rect x="569.5" y="1392.5" width="80.9998" height="81.0001" stroke="#000000" stroke-width="6.875" stroke-linecap="butt" stroke-linejoin="miter" stroke-miterlimit="8" stroke-opacity="1" fill="none"/><text fill="#000000" fill-opacity="1" font-family="DengXian,DengXian_MSFontService,sans-serif" font-style="normal" font-variant="normal" font-weight="400" font-stretch="normal" font-size="55" text-anchor="start" direction="ltr" writing-mode="lr-tb" unicode-bidi="normal" text-decoration="none" transform="matrix(1 0 0 1 594.738 1450)">2</text><rect x="569.5" y="1524.5" width="80.9998" height="81.0001" stroke="#000000" stroke-width="6.875" stroke-linecap="butt" stroke-linejoin="miter" stroke-miterlimit="8" stroke-opacity="1" fill="none"/><text fill="#000000" fill-opacity="1" font-family="DengXian,DengXian_MSFontService,sans-serif" font-style="normal" font-variant="normal" font-weight="400" font-stretch="normal" font-size="55" text-anchor="start" direction="ltr" writing-mode="lr-tb" unicode-bidi="normal" text-decoration="none" transform="matrix(1 0 0 1 594.738 1583)">3</text><path d="M947.5 1665.83C947.5 1659.57 952.574 1654.5 958.833 1654.5L1017.17 1654.5C1023.43 1654.5 1028.5 1659.57 1028.5 1665.83L1028.5 1711.17C1028.5 1717.43 1023.43 1722.5 1017.17 1722.5L958.833 1722.5C952.574 1722.5 947.5 1717.43 947.5 1711.17Z" stroke="#B44D49" stroke-width="9.16667" stroke-linecap="butt" stroke-linejoin="miter" stroke-miterlimit="8" stroke-opacity="1" fill="#F8CFCC" fill-rule="evenodd" fill-opacity="1"/><rect x="607.5" y="1678.5" width="38.0002" height="38.9999" stroke="#000000" stroke-width="6.875" stroke-linecap="butt" stroke-linejoin="miter" stroke-miterlimit="8" stroke-opacity="1" fill="none"/><path d="M645.5 1694.06 668.089 1694.06 668.089 1700.94 645.5 1700.94ZM668.089 1697.5 658.922 1683.75 686.422 1697.5 658.922 1711.25Z" fill="#767171" fill-rule="nonzero" fill-opacity="1"/><text fill="#000000" fill-opacity="1" font-family="Times New Roman,Times New Roman_MSFontService,sans-serif" font-style="normal" font-variant="normal" font-weight="400" font-stretch="normal" font-size="46" text-anchor="start" direction="ltr" writing-mode="lr-tb" unicode-bidi="normal" text-decoration="none" transform="matrix(1 0 0 1 739.354 1685)">GPU </text><text fill="#000000" fill-opacity="1" font-family="Times New Roman,Times New Roman_MSFontService,sans-serif" font-style="normal" font-variant="normal" font-weight="400" font-stretch="normal" font-size="46" text-anchor="start" direction="ltr" writing-mode="lr-tb" unicode-bidi="normal" text-decoration="none" transform="matrix(1 0 0 1 714.994 1740)">Process</text><text fill="#000000" fill-opacity="1" font-family="Times New Roman,Times New Roman_MSFontService,sans-serif" font-style="normal" font-variant="normal" font-weight="400" font-stretch="normal" font-size="46" text-anchor="start" direction="ltr" writing-mode="lr-tb" unicode-bidi="normal" text-decoration="none" transform="matrix(1 0 0 1 1064.38 1702)">Simulator</text><path d="M1297.5 1663.83C1297.5 1657.57 1302.57 1652.5 1308.83 1652.5L1367.17 1652.5C1373.43 1652.5 1378.5 1657.57 1378.5 1663.83L1378.5 1709.17C1378.5 1715.43 1373.43 1720.5 1367.17 1720.5L1308.83 1720.5C1302.57 1720.5 1297.5 1715.43 1297.5 1709.17Z" stroke="#6A8DBE" stroke-width="9.16667" stroke-linecap="butt" stroke-linejoin="miter" stroke-miterlimit="8" stroke-opacity="1" fill="#DBE8FC" fill-rule="evenodd" fill-opacity="1"/><text fill="#000000" fill-opacity="1" font-family="Times New Roman,Times New Roman_MSFontService,sans-serif" font-style="normal" font-variant="normal" font-weight="400" font-stretch="normal" font-size="46" text-anchor="start" direction="ltr" writing-mode="lr-tb" unicode-bidi="normal" text-decoration="none" transform="matrix(1 0 0 1 1426.55 1702)">Generation</text><path d="M1658.5 1666.83C1658.5 1660.57 1663.57 1655.5 1669.83 1655.5L1729.17 1655.5C1735.43 1655.5 1740.5 1660.57 1740.5 1666.83L1740.5 1712.17C1740.5 1718.43 1735.43 1723.5 1729.17 1723.5L1669.83 1723.5C1663.57 1723.5 1658.5 1718.43 1658.5 1712.17Z" stroke="#7DB262" stroke-width="9.16667" stroke-linecap="butt" stroke-linejoin="miter" stroke-miterlimit="8" stroke-opacity="1" fill="#D6E8D6" fill-rule="evenodd" fill-opacity="1"/><text fill="#000000" fill-opacity="1" font-family="Times New Roman,Times New Roman_MSFontService,sans-serif" font-style="normal" font-variant="normal" font-weight="400" font-stretch="normal" font-size="46" text-anchor="start" direction="ltr" writing-mode="lr-tb" unicode-bidi="normal" text-decoration="none" transform="matrix(1 0 0 1 1780.71 1704)">Inference</text><path d="M2001.5 1666.67C2001.5 1660.5 2006.5 1655.5 2012.67 1655.5L2071.33 1655.5C2077.5 1655.5 2082.5 1660.5 2082.5 1666.67L2082.5 1711.33C2082.5 1717.5 2077.5 1722.5 2071.33 1722.5L2012.67 1722.5C2006.5 1722.5 2001.5 1717.5 2001.5 1711.33Z" stroke="#D8B656" stroke-width="9.16667" stroke-linecap="butt" stroke-linejoin="miter" stroke-miterlimit="8" stroke-opacity="1" fill="#FFF3CC" fill-rule="evenodd" fill-opacity="1"/><text fill="#000000" fill-opacity="1" font-family="Times New Roman,Times New Roman_MSFontService,sans-serif" font-style="normal" font-variant="normal" font-weight="400" font-stretch="normal" font-size="46" text-anchor="start" direction="ltr" writing-mode="lr-tb" unicode-bidi="normal" text-decoration="none" transform="matrix(1 0 0 1 2120.15 1707)">Training</text></g></g></svg>