<svg width="2195" height="1155" xmlns="http://www.w3.org/2000/svg" xmlns:xlink="http://www.w3.org/1999/xlink" xml:space="preserve" overflow="hidden"><g transform="translate(-559 -646)"><g><path d="M2283.5 1683.83C2283.5 1677.57 2288.57 1672.5 2294.83 1672.5L2353.17 1672.5C2359.43 1672.5 2364.5 1677.57 2364.5 1683.83L2364.5 1729.17C2364.5 1735.43 2359.43 1740.5 2353.17 1740.5L2294.83 1740.5C2288.57 1740.5 2283.5 1735.43 2283.5 1729.17Z" stroke="#3B3838" stroke-width="9.16667" stroke-linecap="butt" stroke-linejoin="miter" stroke-miterlimit="8" stroke-opacity="1" fill="#D0CECE" fill-rule="evenodd" fill-opacity="1"/><text fill="#000000" fill-opacity="1" font-family="Times New Roman,Times New Roman_MSFontService,sans-serif" font-style="normal" font-variant="normal" font-weight="400" font-stretch="normal" font-size="46" text-anchor="start" direction="ltr" writing-mode="lr-tb" unicode-bidi="normal" text-decoration="none" transform="matrix(1 0 0 1 2388.37 1722)">Data</text><text fill="#000000" fill-opacity="1" font-family="Times New Roman,Times New Roman_MSFontService,sans-serif" font-style="normal" font-variant="normal" font-weight="400" font-stretch="normal" font-size="46" text-anchor="start" direction="ltr" writing-mode="lr-tb" unicode-bidi="normal" text-decoration="none" transform="matrix(1 0 0 1 2486.91 1722)">Queue</text><path d="M667 700.844 2613.16 700.844 2613.16 711.157 667 711.156ZM2584.83 683.5 2623.4 706 2584.83 728.501C2582.37 729.936 2579.21 729.105 2577.78 726.645 2576.34 724.186 2577.17 721.028 2579.63 719.593L2610.57 701.547 2610.57 710.454 2579.63 692.407C2577.17 690.973 2576.34 687.815 2577.78 685.355 2579.21 682.896 2582.37 682.065 2584.83 683.5Z" fill="#767171" fill-rule="nonzero" fill-opacity="1"/><path d="M667 870.844 2613.16 870.844 2613.16 881.156 667 881.156ZM2584.83 853.5 2623.4 876 2584.83 898.501C2582.37 899.936 2579.21 899.105 2577.78 896.645 2576.34 894.185 2577.17 891.028 2579.63 889.593L2610.57 871.546 2610.57 880.454 2579.63 862.407C2577.17 860.972 2576.34 857.815 2577.78 855.355 2579.21 852.895 2582.37 852.065 2584.83 853.5Z" fill="#767171" fill-rule="nonzero" fill-opacity="1"/><path d="M667 1370.84 2613.16 1370.84 2613.16 1381.16 667 1381.16ZM2584.83 1353.5 2623.4 1376 2584.83 1398.5C2582.37 1399.94 2579.21 1399.11 2577.78 1396.65 2576.34 1394.19 2577.17 1391.03 2579.63 1389.59L2610.57 1371.55 2610.57 1380.45 2579.63 1362.41C2577.17 1360.97 2576.34 1357.82 2577.78 1355.36 2579.21 1352.9 2582.37 1352.06 2584.83 1353.5Z" fill="#767171" fill-rule="nonzero" fill-opacity="1"/><path d="M667 1533.84 2613.16 1533.84 2613.16 1544.16 667 1544.16ZM2584.83 1516.5 2623.4 1539 2584.83 1561.5C2582.37 1562.94 2579.21 1562.11 2577.78 1559.65 2576.34 1557.19 2577.17 1554.03 2579.63 1552.59L2610.57 1534.55 2610.57 1543.45 2579.63 1525.41C2577.17 1523.97 2576.34 1520.82 2577.78 1518.36 2579.21 1515.9 2582.37 1515.06 2584.83 1516.5Z" fill="#767171" fill-rule="nonzero" fill-opacity="1"/><path d="M740.5 683.834C740.5 669.29 752.29 657.5 766.834 657.5L872.166 657.5C886.71 657.5 898.5 669.29 898.5 683.834L898.5 904.166C898.5 918.71 886.71 930.5 872.166 930.5L766.834 930.5C752.29 930.5 740.5 918.71 740.5 904.166Z" stroke="#B44D49" stroke-width="9.16667" stroke-linecap="butt" stroke-linejoin="miter" stroke-miterlimit="8" stroke-opacity="1" fill="#F8CFCC" fill-rule="evenodd" fill-opacity="1"/><path d="M922.5 1353.67C922.5 1339.22 934.216 1327.5 948.667 1327.5L1053.33 1327.5C1067.78 1327.5 1079.5 1339.22 1079.5 1353.67L1079.5 1567.33C1079.5 1581.78 1067.78 1593.5 1053.33 1593.5L948.667 1593.5C934.216 1593.5 922.5 1581.78 922.5 1567.33Z" stroke="#6A8DBE" stroke-width="9.16667" stroke-linecap="butt" stroke-linejoin="miter" stroke-miterlimit="8" stroke-opacity="1" fill="#DBE8FC" fill-rule="evenodd" fill-opacity="1"/><path d="M932.5 687.667C932.5 673.215 944.216 661.5 958.667 661.5L1063.33 661.5C1077.78 661.5 1089.5 673.215 1089.5 687.667L1089.5 908.333C1089.5 922.785 1077.78 934.5 1063.33 934.5L958.667 934.5C944.216 934.5 932.5 922.785 932.5 908.333Z" stroke="#B44D49" stroke-width="9.16667" stroke-linecap="butt" stroke-linejoin="miter" stroke-miterlimit="8" stroke-opacity="1" fill="#F8CFCC" fill-rule="evenodd" fill-opacity="1"/><path d="M1129.5 1350.67C1129.5 1336.22 1141.22 1324.5 1155.67 1324.5L1260.33 1324.5C1274.78 1324.5 1286.5 1336.22 1286.5 1350.67L1286.5 1567.33C1286.5 1581.78 1274.78 1593.5 1260.33 1593.5L1155.67 1593.5C1141.22 1593.5 1129.5 1581.78 1129.5 1567.33Z" stroke="#6A8DBE" stroke-width="9.16667" stroke-linecap="butt" stroke-linejoin="miter" stroke-miterlimit="8" stroke-opacity="1" fill="#DBE8FC" fill-rule="evenodd" fill-opacity="1"/><text fill="#000000" fill-opacity="1" font-family="Times New Roman,Times New Roman_MSFontService,sans-serif" font-style="normal" font-variant="normal" font-weight="400" font-stretch="normal" font-size="83" text-anchor="start" direction="ltr" writing-mode="lr-tb" unicode-bidi="normal" text-decoration="none" transform="matrix(1 0 0 1 1541.79 791)">…</text><text fill="#000000" fill-opacity="1" font-family="Times New Roman,Times New Roman_MSFontService,sans-serif" font-style="normal" font-variant="normal" font-weight="400" font-stretch="normal" font-size="83" text-anchor="start" direction="ltr" writing-mode="lr-tb" unicode-bidi="normal" text-decoration="none" transform="matrix(1 0 0 1 1539.66 1463)">…</text><path d="M2145.5 676.503C2145.5 663.247 2156.25 652.5 2169.5 652.5L2265.52 652.5C2278.77 652.5 2289.52 663.247 2289.52 676.503L2289.52 1561.5C2289.52 1574.75 2278.77 1585.5 2265.52 1585.5L2169.5 1585.5C2156.25 1585.5 2145.5 1574.75 2145.5 1561.5Z" stroke="#7DB162" stroke-width="9.16667" stroke-linecap="butt" stroke-linejoin="miter" stroke-miterlimit="8" stroke-opacity="1" fill="#D6E8D5" fill-rule="evenodd" fill-opacity="1"/><path d="M2369.5 679.5C2369.5 666.245 2380.25 655.5 2393.5 655.5L2489.5 655.5C2502.75 655.5 2513.5 666.245 2513.5 679.5L2513.5 1563.5C2513.5 1576.75 2502.75 1587.5 2489.5 1587.5L2393.5 1587.5C2380.25 1587.5 2369.5 1576.75 2369.5 1563.5Z" stroke="#D7B656" stroke-width="9.16667" stroke-linecap="butt" stroke-linejoin="miter" stroke-miterlimit="8" stroke-opacity="1" fill="#FFF3CC" fill-rule="evenodd" fill-opacity="1"/><path d="M566.5 1013C566.5 1003.89 573.887 996.5 583 996.5L2072 996.5C2081.11 996.5 2088.5 1003.89 2088.5 1013L2088.5 1079C2088.5 1088.11 2081.11 1095.5 2072 1095.5L583 1095.5C573.887 1095.5 566.5 1088.11 566.5 1079Z" stroke="#3B3838" stroke-width="9.16667" stroke-linecap="butt" stroke-linejoin="miter" stroke-miterlimit="8" stroke-opacity="1" fill="#D0CECE" fill-rule="evenodd" fill-opacity="1"/><path d="M566.5 1166.83C566.5 1157.81 573.813 1150.5 582.834 1150.5L2072.17 1150.5C2081.19 1150.5 2088.5 1157.81 2088.5 1166.83L2088.5 1232.17C2088.5 1241.19 2081.19 1248.5 2072.17 1248.5L582.834 1248.5C573.813 1248.5 566.5 1241.19 566.5 1232.17Z" stroke="#3B3838" stroke-width="9.16667" stroke-linecap="butt" stroke-linejoin="miter" stroke-miterlimit="8" stroke-opacity="1" fill="#D0CECE" fill-rule="evenodd" fill-opacity="1"/><path d="M1140.5 687.667C1140.5 673.215 1152.22 661.5 1166.67 661.5L1271.33 661.5C1285.78 661.5 1297.5 673.215 1297.5 687.667L1297.5 908.333C1297.5 922.785 1285.78 934.5 1271.33 934.5L1166.67 934.5C1152.22 934.5 1140.5 922.785 1140.5 908.333Z" stroke="#B44D49" stroke-width="9.16667" stroke-linecap="butt" stroke-linejoin="miter" stroke-miterlimit="8" stroke-opacity="1" fill="#F8CFCC" fill-rule="evenodd" fill-opacity="1"/><path d="M1348.5 687.667C1348.5 673.215 1360.22 661.5 1374.67 661.5L1479.33 661.5C1493.78 661.5 1505.5 673.215 1505.5 687.667L1505.5 908.333C1505.5 922.785 1493.78 934.5 1479.33 934.5L1374.67 934.5C1360.22 934.5 1348.5 922.785 1348.5 908.333Z" stroke="#B44D49" stroke-width="9.16667" stroke-linecap="butt" stroke-linejoin="miter" stroke-miterlimit="8" stroke-opacity="1" fill="#F8CFCC" fill-rule="evenodd" fill-opacity="1"/><path d="M1340.5 1350.67C1340.5 1336.22 1352.22 1324.5 1366.67 1324.5L1471.33 1324.5C1485.78 1324.5 1497.5 1336.22 1497.5 1350.67L1497.5 1567.33C1497.5 1581.78 1485.78 1593.5 1471.33 1593.5L1366.67 1593.5C1352.22 1593.5 1340.5 1581.78 1340.5 1567.33Z" stroke="#6A8DBE" stroke-width="9.16667" stroke-linecap="butt" stroke-linejoin="miter" stroke-miterlimit="8" stroke-opacity="1" fill="#DBE8FC" fill-rule="evenodd" fill-opacity="1"/><path d="M811.788 792.496 888.761 1044.47 882.186 1046.48 805.212 794.504ZM885.474 1045.48 895.946 1032.69 890.83 1063.01 869.646 1040.73Z" fill="#000000" fill-rule="nonzero" fill-opacity="1"/><path d="M893.814 1062.59 1001.85 1454.5 995.227 1456.33 887.186 1064.41ZM998.54 1455.41 1009.36 1442.92 1003.41 1473.08 982.848 1450.23Z" fill="#000000" fill-rule="nonzero" fill-opacity="1"/><path d="M3.27654-1.03955 9.51384 18.6197 2.96075 20.6988-3.27654 1.03955ZM11.5929 25.1728 17.8302 44.8321 11.2772 46.9112 5.03985 27.2519ZM19.9093 51.3852 26.1466 71.0444 19.5935 73.1235 13.3563 53.4643ZM28.2257 77.5975 34.463 97.2568 27.9099 99.3359 21.6727 79.6766ZM36.5421 103.81 42.7794 123.469 36.2263 125.548 29.989 105.889ZM44.8585 130.022 51.0958 149.681 44.5427 151.761 38.3054 132.101ZM53.1749 156.235 59.4122 175.894 52.8591 177.973 46.6218 158.314ZM61.4913 182.447 67.7286 202.106 61.1755 204.185 54.9382 184.526ZM69.8077 208.659 76.045 228.319 69.4919 230.398 63.2546 210.738ZM78.1241 234.872 80.4402 242.172 73.8872 244.251 71.571 236.951ZM77.1636 243.211 87.4977 230.315 82.7079 260.686 61.2853 238.632Z" fill="#000000" fill-rule="nonzero" fill-opacity="1" transform="matrix(1 0 0 -1 1003.5 1465.19)"/><path d="M3.25726-1.09849 9.84822 18.445 3.33371 20.642-3.25726 1.09849ZM12.0452 24.9596 18.6362 44.5031 12.1217 46.7001 5.5307 27.1565ZM20.8332 51.0176 27.4241 70.5611 20.9096 72.7581 14.3187 53.2146ZM29.6211 77.0757 36.2121 96.6192 29.6976 98.8162 23.1066 79.2726ZM38.4091 103.134 45 122.677 38.4855 124.874 31.8946 105.331ZM47.197 129.192 53.788 148.735 47.2735 150.932 40.6825 131.389ZM55.985 155.25 62.576 174.793 56.0614 176.99 49.4705 157.447ZM64.7729 181.308 71.3639 200.851 64.8494 203.048 58.2584 183.505ZM73.5609 207.366 80.1519 226.909 73.6374 229.106 67.0464 209.563ZM82.3489 233.424 88.9398 252.968 82.4253 255.164 75.8343 235.621ZM91.1368 259.482 97.7278 279.026 91.2133 281.223 84.6223 261.679ZM99.9248 285.54 106.516 305.084 100.001 307.281 93.4102 287.737ZM108.713 311.598 115.304 331.142 108.789 333.339 102.198 313.795ZM117.501 337.656 124.092 357.2 117.577 359.397 110.986 339.853ZM126.289 363.714 132.88 383.258 126.365 385.455 119.774 365.911ZM135.077 389.772 138.78 400.753 132.265 402.95 128.562 391.969ZM135.523 401.852 145.622 388.772 141.381 419.224 119.564 397.56Z" fill="#000000" fill-rule="nonzero" fill-opacity="1" transform="matrix(1 0 0 -1 1086.5 1204.72)"/><path d="M1711.5 687.667C1711.5 673.215 1723.22 661.5 1737.67 661.5L1842.33 661.5C1856.78 661.5 1868.5 673.215 1868.5 687.667L1868.5 908.333C1868.5 922.785 1856.78 934.5 1842.33 934.5L1737.67 934.5C1723.22 934.5 1711.5 922.785 1711.5 908.333Z" stroke="#B44D49" stroke-width="9.16667" stroke-linecap="butt" stroke-linejoin="miter" stroke-miterlimit="8" stroke-opacity="1" fill="#F8CFCC" fill-rule="evenodd" fill-opacity="1"/><path d="M1906.5 1348.67C1906.5 1334.22 1918.22 1322.5 1932.67 1322.5L2037.33 1322.5C2051.78 1322.5 2063.5 1334.22 2063.5 1348.67L2063.5 1565.33C2063.5 1579.78 2051.78 1591.5 2037.33 1591.5L1932.67 1591.5C1918.22 1591.5 1906.5 1579.78 1906.5 1565.33Z" stroke="#6A8DBE" stroke-width="9.16667" stroke-linecap="butt" stroke-linejoin="miter" stroke-miterlimit="8" stroke-opacity="1" fill="#DBE8FC" fill-rule="evenodd" fill-opacity="1"/><path d="M1713.5 1347.67C1713.5 1333.22 1725.22 1321.5 1739.67 1321.5L1844.33 1321.5C1858.78 1321.5 1870.5 1333.22 1870.5 1347.67L1870.5 1565.33C1870.5 1579.78 1858.78 1591.5 1844.33 1591.5L1739.67 1591.5C1725.22 1591.5 1713.5 1579.78 1713.5 1565.33Z" stroke="#6A8DBE" stroke-width="9.16667" stroke-linecap="butt" stroke-linejoin="miter" stroke-miterlimit="8" stroke-opacity="1" fill="#DBE8FC" fill-rule="evenodd" fill-opacity="1"/><rect x="567.5" y="659.5" width="100" height="99.9997" stroke="#000000" stroke-width="6.875" stroke-linecap="butt" stroke-linejoin="miter" stroke-miterlimit="8" stroke-opacity="1" fill="none"/><text fill="#000000" fill-opacity="1" font-family="DengXian,DengXian_MSFontService,sans-serif" font-style="normal" font-variant="normal" font-weight="400" font-stretch="normal" font-size="55" text-anchor="start" direction="ltr" writing-mode="lr-tb" unicode-bidi="normal" text-decoration="none" transform="matrix(1 0 0 1 602.252 727)">0</text><rect x="567.5" y="829.5" width="100" height="100" stroke="#000000" stroke-width="6.875" stroke-linecap="butt" stroke-linejoin="miter" stroke-miterlimit="8" stroke-opacity="1" fill="none"/><text fill="#000000" fill-opacity="1" font-family="DengXian,DengXian_MSFontService,sans-serif" font-style="normal" font-variant="normal" font-weight="400" font-stretch="normal" font-size="55" text-anchor="start" direction="ltr" writing-mode="lr-tb" unicode-bidi="normal" text-decoration="none" transform="matrix(1 0 0 1 602.252 897)">1</text><rect x="567.5" y="1328.5" width="100" height="100" stroke="#000000" stroke-width="6.875" stroke-linecap="butt" stroke-linejoin="miter" stroke-miterlimit="8" stroke-opacity="1" fill="none"/><text fill="#000000" fill-opacity="1" font-family="DengXian,DengXian_MSFontService,sans-serif" font-style="normal" font-variant="normal" font-weight="400" font-stretch="normal" font-size="55" text-anchor="start" direction="ltr" writing-mode="lr-tb" unicode-bidi="normal" text-decoration="none" transform="matrix(1 0 0 1 602.577 1396)">2</text><rect x="567.5" y="1492.5" width="100" height="99" stroke="#000000" stroke-width="6.875" stroke-linecap="butt" stroke-linejoin="miter" stroke-miterlimit="8" stroke-opacity="1" fill="none"/><text fill="#000000" fill-opacity="1" font-family="DengXian,DengXian_MSFontService,sans-serif" font-style="normal" font-variant="normal" font-weight="400" font-stretch="normal" font-size="55" text-anchor="start" direction="ltr" writing-mode="lr-tb" unicode-bidi="normal" text-decoration="none" transform="matrix(1 0 0 1 602.577 1559)">3</text><path d="M1016.79 789.496 1093.76 1041.47 1087.19 1043.48 1010.21 791.504ZM1090.47 1042.48 1100.95 1029.69 1095.83 1060.01 1074.65 1037.73Z" fill="#000000" fill-rule="nonzero" fill-opacity="1"/><path d="M1098.81 1059.59 1206.85 1451.5 1200.23 1453.33 1092.19 1061.41ZM1203.54 1452.41 1214.36 1439.92 1208.41 1470.08 1187.85 1447.23Z" fill="#000000" fill-rule="nonzero" fill-opacity="1"/><path d="M3.27654-1.03955 9.51384 18.6197 2.96075 20.6988-3.27654 1.03955ZM11.5929 25.1728 17.8302 44.8321 11.2772 46.9112 5.03985 27.2519ZM19.9093 51.3852 26.1466 71.0444 19.5935 73.1235 13.3563 53.4643ZM28.2257 77.5975 34.463 97.2568 27.9099 99.3359 21.6727 79.6766ZM36.5421 103.81 42.7794 123.469 36.2263 125.548 29.989 105.889ZM44.8585 130.022 51.0958 149.681 44.5427 151.761 38.3054 132.101ZM53.1749 156.235 59.4122 175.894 52.8591 177.973 46.6218 158.314ZM61.4913 182.447 67.7286 202.106 61.1755 204.185 54.9382 184.526ZM69.8077 208.659 76.045 228.319 69.4919 230.398 63.2546 210.738ZM78.1241 234.872 80.4402 242.172 73.8872 244.251 71.571 236.951ZM77.1636 243.211 87.4977 230.315 82.7079 260.686 61.2853 238.632Z" fill="#000000" fill-rule="nonzero" fill-opacity="1" transform="matrix(1 0 0 -1 1210.5 1471.19)"/><path d="M3.25726-1.09849 9.84822 18.445 3.33371 20.642-3.25726 1.09849ZM12.0452 24.9596 18.6362 44.5031 12.1217 46.7001 5.5307 27.1565ZM20.8332 51.0176 27.4241 70.5611 20.9096 72.7581 14.3187 53.2146ZM29.6211 77.0757 36.2121 96.6192 29.6976 98.8162 23.1066 79.2726ZM38.4091 103.134 45 122.677 38.4855 124.874 31.8946 105.331ZM47.197 129.192 53.788 148.735 47.2735 150.932 40.6825 131.389ZM55.985 155.25 62.576 174.793 56.0614 176.99 49.4705 157.447ZM64.7729 181.308 71.3639 200.851 64.8494 203.048 58.2584 183.505ZM73.5609 207.366 80.1519 226.909 73.6374 229.106 67.0464 209.563ZM82.3489 233.424 88.9398 252.968 82.4253 255.164 75.8343 235.621ZM91.1368 259.482 97.7278 279.026 91.2133 281.223 84.6223 261.679ZM99.9248 285.54 106.516 305.084 100.001 307.281 93.4102 287.737ZM108.713 311.598 115.304 331.142 108.789 333.339 102.198 313.795ZM117.501 337.656 124.092 357.2 117.577 359.397 110.986 339.853ZM126.289 363.714 132.88 383.258 126.365 385.455 119.774 365.911ZM135.077 389.772 138.78 400.753 132.265 402.95 128.562 391.969ZM135.523 401.852 145.622 388.772 141.381 419.224 119.564 397.56Z" fill="#000000" fill-rule="nonzero" fill-opacity="1" transform="matrix(1 0 0 -1 1293.5 1209.72)"/><path d="M912.5 1684.83C912.5 1678.57 917.574 1673.5 923.834 1673.5L982.166 1673.5C988.426 1673.5 993.5 1678.57 993.5 1684.83L993.5 1730.17C993.5 1736.43 988.426 1741.5 982.166 1741.5L923.834 1741.5C917.574 1741.5 912.5 1736.43 912.5 1730.17Z" stroke="#B44D49" stroke-width="9.16667" stroke-linecap="butt" stroke-linejoin="miter" stroke-miterlimit="8" stroke-opacity="1" fill="#F8CFCC" fill-rule="evenodd" fill-opacity="1"/><rect x="572.5" y="1697.5" width="38.0002" height="39.0002" stroke="#000000" stroke-width="6.875" stroke-linecap="butt" stroke-linejoin="miter" stroke-miterlimit="8" stroke-opacity="1" fill="none"/><path d="M610.5 1714.06 633.089 1714.06 633.089 1720.94 610.5 1720.94ZM633.089 1717.5 623.922 1703.75 651.422 1717.5 623.922 1731.25Z" fill="#767171" fill-rule="nonzero" fill-opacity="1"/><text fill="#000000" fill-opacity="1" font-family="Times New Roman,Times New Roman_MSFontService,sans-serif" font-style="normal" font-variant="normal" font-weight="400" font-stretch="normal" font-size="46" text-anchor="start" direction="ltr" writing-mode="lr-tb" unicode-bidi="normal" text-decoration="none" transform="matrix(1 0 0 1 704.228 1704)">GPU </text><text fill="#000000" fill-opacity="1" font-family="Times New Roman,Times New Roman_MSFontService,sans-serif" font-style="normal" font-variant="normal" font-weight="400" font-stretch="normal" font-size="46" text-anchor="start" direction="ltr" writing-mode="lr-tb" unicode-bidi="normal" text-decoration="none" transform="matrix(1 0 0 1 679.868 1759)">Process</text><text fill="#000000" fill-opacity="1" font-family="Times New Roman,Times New Roman_MSFontService,sans-serif" font-style="normal" font-variant="normal" font-weight="400" font-stretch="normal" font-size="46" text-anchor="start" direction="ltr" writing-mode="lr-tb" unicode-bidi="normal" text-decoration="none" transform="matrix(1 0 0 1 1029.25 1721)">Simulator</text><path d="M1262.5 1682.83C1262.5 1676.57 1267.57 1671.5 1273.83 1671.5L1332.17 1671.5C1338.43 1671.5 1343.5 1676.57 1343.5 1682.83L1343.5 1728.17C1343.5 1734.43 1338.43 1739.5 1332.17 1739.5L1273.83 1739.5C1267.57 1739.5 1262.5 1734.43 1262.5 1728.17Z" stroke="#6A8DBE" stroke-width="9.16667" stroke-linecap="butt" stroke-linejoin="miter" stroke-miterlimit="8" stroke-opacity="1" fill="#DBE8FC" fill-rule="evenodd" fill-opacity="1"/><text fill="#000000" fill-opacity="1" font-family="Times New Roman,Times New Roman_MSFontService,sans-serif" font-style="normal" font-variant="normal" font-weight="400" font-stretch="normal" font-size="46" text-anchor="start" direction="ltr" writing-mode="lr-tb" unicode-bidi="normal" text-decoration="none" transform="matrix(1 0 0 1 1391.43 1721)">Generation</text><path d="M1623.5 1685.83C1623.5 1679.57 1628.57 1674.5 1634.83 1674.5L1694.17 1674.5C1700.43 1674.5 1705.5 1679.57 1705.5 1685.83L1705.5 1731.17C1705.5 1737.43 1700.43 1742.5 1694.17 1742.5L1634.83 1742.5C1628.57 1742.5 1623.5 1737.43 1623.5 1731.17Z" stroke="#7DB262" stroke-width="9.16667" stroke-linecap="butt" stroke-linejoin="miter" stroke-miterlimit="8" stroke-opacity="1" fill="#D6E8D6" fill-rule="evenodd" fill-opacity="1"/><text fill="#000000" fill-opacity="1" font-family="Times New Roman,Times New Roman_MSFontService,sans-serif" font-style="normal" font-variant="normal" font-weight="400" font-stretch="normal" font-size="46" text-anchor="start" direction="ltr" writing-mode="lr-tb" unicode-bidi="normal" text-decoration="none" transform="matrix(1 0 0 1 1745.58 1723)">Inference</text><path d="M1966.5 1685.83C1966.5 1679.57 1971.57 1674.5 1977.83 1674.5L2036.17 1674.5C2042.43 1674.5 2047.5 1679.57 2047.5 1685.83L2047.5 1731.17C2047.5 1737.43 2042.43 1742.5 2036.17 1742.5L1977.83 1742.5C1971.57 1742.5 1966.5 1737.43 1966.5 1731.17Z" stroke="#D8B656" stroke-width="9.16667" stroke-linecap="butt" stroke-linejoin="miter" stroke-miterlimit="8" stroke-opacity="1" fill="#FFF3CC" fill-rule="evenodd" fill-opacity="1"/><text fill="#000000" fill-opacity="1" font-family="Times New Roman,Times New Roman_MSFontService,sans-serif" font-style="normal" font-variant="normal" font-weight="400" font-stretch="normal" font-size="46" text-anchor="start" direction="ltr" writing-mode="lr-tb" unicode-bidi="normal" text-decoration="none" transform="matrix(1 0 0 1 2085.02 1720)">Training</text></g></g></svg>